<?xml version='1.0' encoding='utf-8'?>
<svg xmlns="http://www.w3.org/2000/svg" xmlns:xlink="http://www.w3.org/1999/xlink" version="1.1" viewBox="0 0 1541 1920">
 <g transform="translate(0 867.64)">
  <g transform="matrix(2.5735 0 0 2.5735 -286.04 -1493.2)" fill-rule="evenodd" fill="#000000">
   <path d="m370.6 257.88c-2e-5 6.4158-42.301 14.395-96.975 14.395-54.673 0-100.27-6.9254-100.27-13.341 2e-5 -6.4158 35.114-15.886 99.635-15.448 74.371 0.50508 97.606 7.9789 97.606 14.395z"/>
   <path d="m173.97 257.41-0.0508 0.0937c0.0216-0.0292 0.0474-0.0586 0.0703-0.0879-7e-3 -2e-3 -0.013-4e-3 -0.0195-6e-3zm196.63 0.46679c-2e-5 6.4158-42.301 14.395-96.975 14.395-54.673 0-100.27-6.9241-100.27-13.34 0-0.1819 0.0355-0.36817 0.0918-0.55469l-8.9863 16.664c60.065 23.22 217.88 7.6848 216.63-2.6582z" fill="#ff9933"/>
   <path d="m344.46 736.95c-0.2563 0.80838-0.50187 1.6128-0.75976 2.4219-41.303 24.177-98.77 18.656-133.93 1.9824-0.20556-0.58175-0.40631-1.173-0.61133-1.7559-1.1622 0.28218-1.0406 3.619-0.10942 3.8514 0.91928 15.957 19.812 18.38 32.731 21.235 13.68 2.1184 33.488 4.0291 56.607 1.4277 43.831-7.2794 46.181-13.179 46.082-29.162z" stroke="#ff9933" stroke-width="3px"/>
   <path d="m379.91 295.21-216.02 0.91992c-25.81 148.39-5.8941 274.18 25.678 382.63 58.002 13.192 115.73 13.951 173.06-3.7969 32.008-120.02 44.933-236.85 17.275-379.75z" stroke="#ff9933" stroke-width="3px"/>
   <path d="m357.12 694.91c-52.448 10.695-110.1 11.016-162.57 0.49609 4.8384 15.677 9.9399 30.992 15.225 45.947 35.16 16.673 92.627 22.195 133.93-1.9824 4.7584-14.929 9.2292-29.729 13.42-44.461z"/>
   <path d="m375.54 585.57c-4.512 0.0489-9.2271 2.6938-9.748 7.9102l-12.117 73.188 4.4688 4.8828-1.5684 5.3848c-45.044 14.027-109.1 13.047-158.73 3.4844l-2.3242-6.8008 4.5078-5.0371-15.148-72.719c-1.4426-10.39-20.079-9.9029-19.129 0.40234l11.199 55.758c-10.374 8.1189-3.9985 39.032 6.8047 41.055 0.23464 0.0578 0.47209 0.1107 0.70703 0.16797l-8.7402 40.566c-1.7558 2.0922-4.44 4.3084-4.5977 6.1875l-37.477 150.44c-6.4083 8.3196-11.662 17.739-8.3086 35.355 0.0376 2.225 1.4075 5.5344-2.6504 4.418-2.3596-0.44895-4.7796-1.0608-5.3047 3.5352l-5.3027 17.324c-0.66118 2.8464-1.8949 5.837 1.0606 7.7793 2.8295 3.3949 15.583 9.5713 16.617 2.6504l5.3027-18.738c1.6855-4.1046 0.30884-6.3817-5.6562-9.8984l0.54883-5.9414c12.446-9.1345 15.087-19.458 12.002-30.475l16.617-63.463c1.2807-0.17488 2.6394-0.15061 3.3594-1.7676l33.367-135.55c53.379 10.919 112.85 8.4235 158.3-0.0449 1.9877-0.39872 3.969-0.80175 5.8418-1.1895l33.672 136.78c0.71992 1.617 2.0767 1.5927 3.3574 1.7676l16.838 63.242c1.1193 2.1774 3.6874 6.81 5.7207 7.207-3.5223 12.564-0.0804 23.715 3.9141 33.053-5.8325 1.3512-3.4083 5.3535-3.2695 6.3203l5.6133 18.693c2.4482 8.4678 11.532 3.0858 19.842-0.57422 3.5742-2.2074 2.1651-4.2239 1.5039-7.0703l-4.1113-19.137c-1.0554-3.005-3.6497-2.9242-6.0976-2.873 1.3338-17.71-12.252-26.017-14.469-29.303 1.6296-3.7835 1.783-5.522 1.6914-9.6055l-39.727-152.94c-0.15766-1.8791-2.8399-4.0953-4.5957-6.1875l-9.0156-41.848c2.4606-0.58757 4.844-1.1737 7.0215-1.7441 6.1225-0.81025 11.591-37.543-1.25-42.143l-0.70118 0.0137 8.6973-54.857c0.28724-5.1657-4.0212-7.713-8.5332-7.6641zm-2.0938 77.973c3.2915 1.7984 5.4072 3.7568 0.0879 6.7188l-1.9453-1.7676 1.8574-4.9512zm-193.13 3.625 1.8555 3.2695c-4.7155 0.18129-3.9106-1.3496-1.8555-3.2695z" stroke="#ff9933" stroke-width="3px"/>
   <path d="m289.41 766.91c-5.3723 0.35913-10.531 0.49303-15.432 0.45117l1.5234 53c0.5903 4.8873 0.89643 10.532 2.834 11.826 1.2546 1.9181 2.1734 3.8596 0.17774 6.0098-1.5064 3.7251-1.3344 5.5302-1.2383 7.4238-3.5753 2.6255-3.1642 4.72-3.3574 6.8945l0.26367 18.562c0.33985 1.0607-0.35792 2.121 1.6797 3.1816 5.3328 0.53415 10.665 0.64227 15.998 0 1.666-0.60047 3.3863-1.0531 3.4473-6.0098l-0.26367-16.971c0.24319-4.1937-2.3898-3.2591-3.9785-3.8906-5.052-7.0031-8.784-11.324-4.5078-18.738 2.6036-4.7992 5.0275-6.1869 4.5957-14.584l-1.7422-47.156zm-9.2969 5.1719h3.3418c0.59221 0 1.0684 0.47471 1.0684 1.0644v0.78907c0 0.58974-0.47615 1.0644-1.0684 1.0644h-3.3418c-0.59221 0-1.0684-0.47471-1.0684-1.0644v-0.78907c0-0.58974 0.47615-1.0644 1.0684-1.0644z" stroke="#ff9933" stroke-width="3px"/>
   <path d="m373.69 262.15 7.4043 10.23c1.2488 10.343-156.57 25.878-216.63 2.6582l5.957-11.047c-14.642 2.2334-18.936 11.194-17.719 19.111l-0.0156-0.0176c0.0136 0.0669 0.0274 0.12475 0.041 0.19141 0.10452 0.63651 0.2369 1.2666 0.41015 1.8848 2.7947 13.025 6.0018 21.196 10.77 10.982 0.0101-0.0353 0.3029 0.044 0.37694 0.0547 7.6855 1.3368 15.927 2.6787 22.232 3.5879l7.0527 16.803c3.9384 6.7041 8.6981 5.1925 13.637 1.8945l14.234-14.732c36.837 3.0828 71.424 2.447 104.39-0.86914l-0.45117 0.0605c6.5804 11.966 20.75 19.346 28.193 10.488 4.3018-8.4263 8.293-10.459 10.748-15.688l-0.11523 0.0156c3.1754-0.52874 6.3401-1.0768 9.4883-1.6504 3.0866-0.1076 5.7503-0.64363 8.0391-1.4863l-0.0508 0.0371c3.5804 6.4126 8.0663 3.8178 7.9238-5.8457l-0.0547 0.041c4.8223-6.8737 3.9233-26.805-15.857-26.705zm-28.145 38.377c1.0107 6e-3 1.9738 0.44921 2.3789 1.2305l0.58985 10.408c-1.8425 2.8757-4.6723 0.90647-5.4766-0.0176l-0.1504-10.236c0.59031-0.96122 1.6475-1.3909 2.6582-1.3848zm-143.8 2.5664c0.84662 0.0642 1.5757 0.54074 2.166 1.502l-0.0879 11.047c-1.6168 0.73655-3.1965 2.0807-5.0391-0.79492l0.0879-10.783c1.0614-0.68751 2.0264-1.0349 2.873-0.97071z" stroke="#ff9933" stroke-width="3px"/>
   <path d="m157.51 330.58 2.0329 0.26515-2.2981 19.622-2.3865-0.35356z"/>
   <path d="m155.56 291.52c0.40458 2.7192 1.5999 4.5752 1.9049 6.8995-5.1534 8.2547 1.3185 19.54 0.34905 31.638-0.13916 6.9352-5.9022 14.347-3.8368 19.616 0.60833 0.0987 1.6463 0.15272 3.0295 0.37089l-0.91623 15.103c-2.1698 0.84636-4.411 2.1291-5.0823 4.6404-0.36743 2.7701-0.24733 3.9724-0.57452 5.6568-1.5652 2.3214-4.3866 2.2389-5.547 0.0246-0.22921-1.9919 0.17992-4.7338 0.50888-5.7256 1.9157-1.3963 1.7835-0.16175 2.8872-1.8828 0.65246-0.91528 3.1287-3.4748 1.9545-3.5651-2.735-0.17018-5.8129 1.1275-5.523-1.7552l-0.11427-10.121c0.17028-1.6921 0.63266-3.1718 3.3588-3.0052h2.9168c-1.2195-13.584 6.5598-13.831 2.5191-30.096-3.9023-15.708-0.39987-23.368 2.1655-27.798z" stroke="#ff9933" stroke-width="3px"/>
   <path d="m187.56 348.08 34.42 1.3195c2.241 2.1213 1.7935 4.8676 2.1731 6.989l-1.2374 23.511c-2.5106 4.6246-6.0662 6.637-9.8995 7.955l0.7071 13.258c0.11672 2.6105-0.73036 3.6146-1.591 4.5962l-7.6014 9.0156c-2.2188 2.1306-4.3015 2.3557-6.1872-0.17677l-6.364-9.7227-2.7034-6.1746 0.58211-12.21c-3.0539-1.2209-4.0145-4.2362-4.773-7.4246l0.88388-27.931c-0.0868-1.6188 0.69132-2.3728 1.591-3.0052z" stroke="#ff9933" stroke-width="3px"/>
   <path d="m361.69 348.08-34.508 2.0266c-2.241 2.1213-3.2961 2.8347-3.6757 4.956l2.4749 25.544c2.5106 4.6246 6.1546 4.6041 10.253 7.2478l-1.0606 11.756c-0.11672 2.6105 1.5258 4.9404 2.3865 5.922l8.1317 8.5737c2.2188 2.1306 3.6828 2.0905 5.5685-0.44193l6.5407-9.2808 2.1731-5.7327-0.84728-12.387c3.0539-1.2209 4.2796-4.0594 5.0381-7.2478l-0.88388-27.931c0.0868-1.6188-0.69132-2.3728-1.591-3.0052z" stroke="#ff9933" stroke-width="3px"/>
   <path d="m197.39 393.41-2.8281-0.0762 0.0293 2.7441c-0.42461 0.0575-0.83973 0.15506-1.2285 0.29688l-0.0703 4.1914c0.97185 2.217 2.7957 3.0892 4.6777 0.28125l0.12109-4.1875c-0.25561-0.1451-0.53519-0.2581-0.82422-0.35352l0.12305-2.8965zm3.4512-83.305c-1.1232 0.0248-2.2556 0.66856-2.4199 1.8476-3.9527 11.969-3.7769 24.118-1.7949 36.254l-1.2246 27.004c-0.89042 0.63251-0.64393 1.0376-0.77148 1.5176l-0.12891 10.996 6e-3 0.51172h3.1035l0.0156-0.36133 0.12109-10.504c0.25272-0.71837 0.27701-1.551 1.4785-1.7949l2.4004-27.371c-2.5164-12.524-2.0404-26.842 1.582-36.234-0.12965-1.2961-1.244-1.8901-2.3672-1.8652z" color="#ff9933" color-rendering="auto" image-rendering="auto" shape-rendering="auto" solid-color="#ff9933" stroke="#ff9933" stroke-width="3px" style="block-progression:tb;isolation:auto;mix-blend-mode:normal;text-decoration-color:#ff9933;text-decoration-line:none;text-decoration-style:solid;text-indent:0;text-transform:none;white-space:normal"/>
   <path d="m355.61 392.23-2.8008 0.31641 0.19336 1.4102c-0.3779 0.12404-0.73088 0.28-1.0312 0.47461l0.36719 4.1738c2.0433 2.6929 4.1246 1.7135 4.9648-0.55664l-0.31445-4.1777c-0.38585-0.11563-0.81457-0.19068-1.2598-0.22461l-0.11914-1.416zm-9.8652-84.217c-1.4003 5e-3 -2.8212 0.84728-2.9356 2.2109 3.0251 11.691 5.8328 23.335 3.3164 35.859l3.2754 27.121c0.42026 1.0252 0.69452 1.1078 0.79102 1.8574l1.8086 11.566 0.22266 1.6289 3.0176-0.41407-0.11523-1.3652-1.2852-11.277c-0.12755-0.47994 0.27519-1.7288-0.61523-2.3613l-2.0996-26.754c1.982-12.135 2.0612-24.624-2.7754-36.416-0.43998-1.1577-1.5164-1.6601-2.6055-1.6562z" color="#ff9933" color-rendering="auto" image-rendering="auto" shape-rendering="auto" solid-color="#ff9933" stroke="#ff9933" stroke-width="3px" style="block-progression:tb;isolation:auto;mix-blend-mode:normal;text-decoration-color:#ff9933;text-decoration-line:none;text-decoration-style:solid;text-indent:0;text-transform:none;white-space:normal"/>
   <path d="m389 289.61-1.9375 5.6875c0.95029 1.5887 3.3917 9.5224 0.25 20.062-2.7148 11.615 0.72908 23.045 2.5273 31.852l-2.0898 0.27344 2.25 17.625c1.4914 2.5985 2.2436 1.5274 3.7266-0.47071l0.16797 0.7461c-0.16834 0.21062-0.60243 0.40231-0.66015 1.166l0.26562 5.0586c0.41542 1.4257 3.9854 3.0789 5.1875-0.25l-0.25-5.125c0.15273-0.60647-0.61368-0.90655-1.1562-1.2812-0.33024-1.3177-0.66659-2.6715-1.002-4.0137l1.8457-0.33008c1.2599 0.54433 1.4555-0.68526 1.75-1.75l-0.25-9.125c1.186-3.0823-1.565-2.7483-4.25-3.25l-2.4414 0.32031c-2.7053-12.394-4.3396-23.968-1.8086-30.32 1.6254-6.8429 2.2113-13.554 1.25-18.625-0.7241-3.4342-3.375-8.25-3.375-8.25z" stroke="#ff9933" stroke-width="3px"/>
   <path d="m364.66 257.25c-3e-5 4.9679-39.922 11.146-91.519 11.146-51.598 0-94.626-5.3625-94.626-10.33 3e-5 -4.9679 33.139-12.301 94.03-11.962 70.187 0.39111 92.115 6.1783 92.115 11.146z" stroke="#ff9933" stroke-width="1.4219"/>
   <g transform="matrix(1.0246 0 0 1.0246 251.39 -1.4807)">
    <path d="m370.6 257.88c-2e-5 6.4158-42.301 14.395-96.975 14.395-54.673 0-100.27-6.9254-100.27-13.341 2e-5 -6.4158 35.114-15.886 99.635-15.448 74.371 0.50508 97.606 7.9789 97.606 14.395z"/>
    <path d="m173.97 257.41-0.0508 0.0937c0.0216-0.0292 0.0474-0.0586 0.0703-0.0879-7e-3 -2e-3 -0.013-4e-3 -0.0195-6e-3zm196.63 0.46679c-2e-5 6.4158-42.301 14.395-96.975 14.395-54.673 0-100.27-6.9241-100.27-13.34 0-0.1819 0.0355-0.36817 0.0918-0.55469l-8.9863 16.664c60.065 23.22 217.88 7.6848 216.63-2.6582z" fill="#ff9933"/>
    <path d="m344.46 736.95c-0.2563 0.80838-0.50187 1.6128-0.75976 2.4219-41.303 24.177-98.77 18.656-133.93 1.9824-0.20556-0.58175-0.40631-1.173-0.61133-1.7559-1.1622 0.28218-1.0406 3.619-0.10942 3.8514 0.91928 15.957 19.812 18.38 32.731 21.235 13.68 2.1184 33.488 4.0291 56.607 1.4277 43.831-7.2794 46.181-13.179 46.082-29.162z" stroke="#ff9933" stroke-width="3px"/>
    <path d="m379.91 295.21-216.02 0.91992c-25.81 148.39-5.8941 274.18 25.678 382.63 58.002 13.192 115.73 13.951 173.06-3.7969 32.008-120.02 44.933-236.85 17.275-379.75z" stroke="#ff9933" stroke-width="3px"/>
    <path d="m357.12 694.91c-52.448 10.695-110.1 11.016-162.57 0.49609 4.8384 15.677 9.9399 30.992 15.225 45.947 35.16 16.673 92.627 22.195 133.93-1.9824 4.7584-14.929 9.2292-29.729 13.42-44.461z"/>
    <path d="m375.54 585.57c-4.512 0.0489-9.2271 2.6938-9.748 7.9102l-12.117 73.188 4.4688 4.8828-1.5684 5.3848c-45.044 14.027-109.1 13.047-158.73 3.4844l-2.3242-6.8008 4.5078-5.0371-15.148-72.719c-1.4426-10.39-20.079-9.9029-19.129 0.40234l11.199 55.758c-10.374 8.1189-3.9985 39.032 6.8047 41.055 0.23464 0.0578 0.47209 0.1107 0.70703 0.16797l-8.7402 40.566c-1.7558 2.0922-4.44 4.3084-4.5977 6.1875l-37.477 150.44c-6.4083 8.3196-11.662 17.739-8.3086 35.355 0.0376 2.225 1.4075 5.5344-2.6504 4.418-2.3596-0.44895-4.7796-1.0608-5.3047 3.5352l-5.3027 17.324c-0.66118 2.8464-1.8949 5.837 1.0606 7.7793 2.8295 3.3949 15.583 9.5713 16.617 2.6504l5.3027-18.738c1.6855-4.1046 0.30884-6.3817-5.6562-9.8984l0.54883-5.9414c12.446-9.1345 15.087-19.458 12.002-30.475l16.617-63.463c1.2807-0.17488 2.6394-0.15061 3.3594-1.7676l33.367-135.55c53.379 10.919 112.85 8.4235 158.3-0.0449 1.9877-0.39872 3.969-0.80175 5.8418-1.1895l33.672 136.78c0.71992 1.617 2.0767 1.5927 3.3574 1.7676l16.838 63.242c1.1193 2.1774 3.6874 6.81 5.7207 7.207-3.5223 12.564-0.0804 23.715 3.9141 33.053-5.8325 1.3512-3.4083 5.3535-3.2695 6.3203l5.6133 18.693c2.4482 8.4678 11.532 3.0858 19.842-0.57422 3.5742-2.2074 2.1651-4.2239 1.5039-7.0703l-4.1113-19.137c-1.0554-3.005-3.6497-2.9242-6.0976-2.873 1.3338-17.71-12.252-26.017-14.469-29.303 1.6296-3.7835 1.783-5.522 1.6914-9.6055l-39.727-152.94c-0.15766-1.8791-2.8399-4.0953-4.5957-6.1875l-9.0156-41.848c2.4606-0.58757 4.844-1.1737 7.0215-1.7441 6.1225-0.81025 11.591-37.543-1.25-42.143l-0.70118 0.0137 8.6973-54.857c0.28724-5.1657-4.0212-7.713-8.5332-7.6641zm-2.0938 77.973c3.2915 1.7984 5.4072 3.7568 0.0879 6.7188l-1.9453-1.7676 1.8574-4.9512zm-193.13 3.625 1.8555 3.2695c-4.7155 0.18129-3.9106-1.3496-1.8555-3.2695z" stroke="#ff9933" stroke-width="3px"/>
    <path d="m289.41 766.91c-5.3723 0.35913-10.531 0.49303-15.432 0.45117l1.5234 53c0.5903 4.8873 0.89643 10.532 2.834 11.826 1.2546 1.9181 2.1734 3.8596 0.17774 6.0098-1.5064 3.7251-1.3344 5.5302-1.2383 7.4238-3.5753 2.6255-3.1642 4.72-3.3574 6.8945l0.26367 18.562c0.33985 1.0607-0.35792 2.121 1.6797 3.1816 5.3328 0.53415 10.665 0.64227 15.998 0 1.666-0.60047 3.3863-1.0531 3.4473-6.0098l-0.26367-16.971c0.24319-4.1937-2.3898-3.2591-3.9785-3.8906-5.052-7.0031-8.784-11.324-4.5078-18.738 2.6036-4.7992 5.0275-6.1869 4.5957-14.584l-1.7422-47.156zm-9.2969 5.1719h3.3418c0.59221 0 1.0684 0.47471 1.0684 1.0644v0.78907c0 0.58974-0.47615 1.0644-1.0684 1.0644h-3.3418c-0.59221 0-1.0684-0.47471-1.0684-1.0644v-0.78907c0-0.58974 0.47615-1.0644 1.0684-1.0644z" stroke="#ff9933" stroke-width="3px"/>
    <path d="m373.69 262.15 7.4043 10.23c1.2488 10.343-156.57 25.878-216.63 2.6582l5.957-11.047c-14.642 2.2334-18.936 11.194-17.719 19.111l-0.0156-0.0176c0.0136 0.0669 0.0274 0.12475 0.041 0.19141 0.10452 0.63651 0.2369 1.2666 0.41015 1.8848 2.7947 13.025 6.0018 21.196 10.77 10.982 0.0101-0.0353 0.3029 0.044 0.37694 0.0547 7.6855 1.3368 15.927 2.6787 22.232 3.5879l7.0527 16.803c3.9384 6.7041 8.6981 5.1925 13.637 1.8945l14.234-14.732c36.837 3.0828 71.424 2.447 104.39-0.86914l-0.45117 0.0605c6.5804 11.966 20.75 19.346 28.193 10.488 4.3018-8.4263 8.293-10.459 10.748-15.688l-0.11523 0.0156c3.1754-0.52874 6.3401-1.0768 9.4883-1.6504 3.0866-0.1076 5.7503-0.64363 8.0391-1.4863l-0.0508 0.0371c3.5804 6.4126 8.0663 3.8178 7.9238-5.8457l-0.0547 0.041c4.8223-6.8737 3.9233-26.805-15.857-26.705zm-28.145 38.377c1.0107 6e-3 1.9738 0.44921 2.3789 1.2305l0.58985 10.408c-1.8425 2.8757-4.6723 0.90647-5.4766-0.0176l-0.1504-10.236c0.59031-0.96122 1.6475-1.3909 2.6582-1.3848zm-143.8 2.5664c0.84662 0.0642 1.5757 0.54074 2.166 1.502l-0.0879 11.047c-1.6168 0.73655-3.1965 2.0807-5.0391-0.79492l0.0879-10.783c1.0614-0.68751 2.0264-1.0349 2.873-0.97071z" stroke="#ff9933" stroke-width="3px"/>
    <path d="m157.51 330.58 2.0329 0.26515-2.2981 19.622-2.3865-0.35356z"/>
    <path d="m155.56 291.52c0.40458 2.7192 1.5999 4.5752 1.9049 6.8995-5.1534 8.2547 1.3185 19.54 0.34905 31.638-0.13916 6.9352-5.9022 14.347-3.8368 19.616 0.60833 0.0987 1.6463 0.15272 3.0295 0.37089l-0.91623 15.103c-2.1698 0.84636-4.411 2.1291-5.0823 4.6404-0.36743 2.7701-0.24733 3.9724-0.57452 5.6568-1.5652 2.3214-4.3866 2.2389-5.547 0.0246-0.22921-1.9919 0.17992-4.7338 0.50888-5.7256 1.9157-1.3963 1.7835-0.16175 2.8872-1.8828 0.65246-0.91528 3.1287-3.4748 1.9545-3.5651-2.735-0.17018-5.8129 1.1275-5.523-1.7552l-0.11427-10.121c0.17028-1.6921 0.63266-3.1718 3.3588-3.0052h2.9168c-1.2195-13.584 6.5598-13.831 2.5191-30.096-3.9023-15.708-0.39987-23.368 2.1655-27.798z" stroke="#ff9933" stroke-width="3px"/>
    <path d="m187.56 348.08 34.42 1.3195c2.241 2.1213 1.7935 4.8676 2.1731 6.989l-1.2374 23.511c-2.5106 4.6246-6.0662 6.637-9.8995 7.955l0.7071 13.258c0.11672 2.6105-0.73036 3.6146-1.591 4.5962l-7.6014 9.0156c-2.2188 2.1306-4.3015 2.3557-6.1872-0.17677l-6.364-9.7227-2.7034-6.1746 0.58211-12.21c-3.0539-1.2209-4.0145-4.2362-4.773-7.4246l0.88388-27.931c-0.0868-1.6188 0.69132-2.3728 1.591-3.0052z" stroke="#ff9933" stroke-width="3px"/>
    <path d="m361.69 348.08-34.508 2.0266c-2.241 2.1213-3.2961 2.8347-3.6757 4.956l2.4749 25.544c2.5106 4.6246 6.1546 4.6041 10.253 7.2478l-1.0606 11.756c-0.11672 2.6105 1.5258 4.9404 2.3865 5.922l8.1317 8.5737c2.2188 2.1306 3.6828 2.0905 5.5685-0.44193l6.5407-9.2808 2.1731-5.7327-0.84728-12.387c3.0539-1.2209 4.2796-4.0594 5.0381-7.2478l-0.88388-27.931c0.0868-1.6188-0.69132-2.3728-1.591-3.0052z" stroke="#ff9933" stroke-width="3px"/>
    <path d="m197.39 393.41-2.8281-0.0762 0.0293 2.7441c-0.42461 0.0575-0.83973 0.15506-1.2285 0.29688l-0.0703 4.1914c0.97185 2.217 2.7957 3.0892 4.6777 0.28125l0.12109-4.1875c-0.25561-0.1451-0.53519-0.2581-0.82422-0.35352l0.12305-2.8965zm3.4512-83.305c-1.1232 0.0248-2.2556 0.66856-2.4199 1.8476-3.9527 11.969-3.7769 24.118-1.7949 36.254l-1.2246 27.004c-0.89042 0.63251-0.64393 1.0376-0.77148 1.5176l-0.12891 10.996 6e-3 0.51172h3.1035l0.0156-0.36133 0.12109-10.504c0.25272-0.71837 0.27701-1.551 1.4785-1.7949l2.4004-27.371c-2.5164-12.524-2.0404-26.842 1.582-36.234-0.12965-1.2961-1.244-1.8901-2.3672-1.8652z" color="#ff9933" color-rendering="auto" image-rendering="auto" shape-rendering="auto" solid-color="#ff9933" stroke="#ff9933" stroke-width="3px" style="block-progression:tb;isolation:auto;mix-blend-mode:normal;text-decoration-color:#ff9933;text-decoration-line:none;text-decoration-style:solid;text-indent:0;text-transform:none;white-space:normal"/>
    <path d="m355.61 392.23-2.8008 0.31641 0.19336 1.4102c-0.3779 0.12404-0.73088 0.28-1.0312 0.47461l0.36719 4.1738c2.0433 2.6929 4.1246 1.7135 4.9648-0.55664l-0.31445-4.1777c-0.38585-0.11563-0.81457-0.19068-1.2598-0.22461l-0.11914-1.416zm-9.8652-84.217c-1.4003 5e-3 -2.8212 0.84728-2.9356 2.2109 3.0251 11.691 5.8328 23.335 3.3164 35.859l3.2754 27.121c0.42026 1.0252 0.69452 1.1078 0.79102 1.8574l1.8086 11.566 0.22266 1.6289 3.0176-0.41407-0.11523-1.3652-1.2852-11.277c-0.12755-0.47994 0.27519-1.7288-0.61523-2.3613l-2.0996-26.754c1.982-12.135 2.0612-24.624-2.7754-36.416-0.43998-1.1577-1.5164-1.6601-2.6055-1.6562z" color="#ff9933" color-rendering="auto" image-rendering="auto" shape-rendering="auto" solid-color="#ff9933" stroke="#ff9933" stroke-width="3px" style="block-progression:tb;isolation:auto;mix-blend-mode:normal;text-decoration-color:#ff9933;text-decoration-line:none;text-decoration-style:solid;text-indent:0;text-transform:none;white-space:normal"/>
    <path d="m389 289.61-1.9375 5.6875c0.95029 1.5887 3.3917 9.5224 0.25 20.062-2.7148 11.615 0.72908 23.045 2.5273 31.852l-2.0898 0.27344 2.25 17.625c1.4914 2.5985 2.2436 1.5274 3.7266-0.47071l0.16797 0.7461c-0.16834 0.21062-0.60243 0.40231-0.66015 1.166l0.26562 5.0586c0.41542 1.4257 3.9854 3.0789 5.1875-0.25l-0.25-5.125c0.15273-0.60647-0.61368-0.90655-1.1562-1.2812-0.33024-1.3177-0.66659-2.6715-1.002-4.0137l1.8457-0.33008c1.2599 0.54433 1.4555-0.68526 1.75-1.75l-0.25-9.125c1.186-3.0823-1.565-2.7483-4.25-3.25l-2.4414 0.32031c-2.7053-12.394-4.3396-23.968-1.8086-30.32 1.6254-6.8429 2.2113-13.554 1.25-18.625-0.7241-3.4342-3.375-8.25-3.375-8.25z" stroke="#ff9933" stroke-width="3px"/>
    <path d="m364.66 257.25c-3e-5 4.9679-39.922 11.146-91.519 11.146-51.598 0-94.626-5.3625-94.626-10.33 3e-5 -4.9679 33.139-12.301 94.03-11.962 70.187 0.39111 92.115 6.1783 92.115 11.146z" stroke="#ff9933" stroke-width="1.4219"/>
   </g>
  </g>
 </g>
</svg>