<?xml version="1.0" encoding="UTF-8"?>
<svg viewBox="0 0 640 480" xmlns="http://www.w3.org/2000/svg">
 <path d="m286.74 156.49l0.1016 1.7734c0.045135 0.97481 0.13687 3.9178 0.20468 6.5468l0.103 4.7733 3.0148-2.7734c3.486-3.2277 3.9504-3.3561 3.9349-1.1364-0.007019 0.90065-1.4282 3.0145-3.1431 4.7058-2.7466 2.7085-3.1319 3.5628-3.2956 7.16-0.12415 2.7164 0.11578 3.9296 0.69022 3.6144 0.47421-0.26091 0.84253-0.94562 0.84253-1.5231 0-0.57613 0.36847-1.045 0.81726-1.045 0.4502 0 0.81717-1.2675 0.81717-2.8198 0-3.2277 2.0593-5.4846 3.3478-3.682 0.41077 0.57481 0.58011 1.4291 0.38391 1.9098-0.43613 1.0596 1.9167 0.36821 3.5003-1.0238 0.59415-0.52179 1.5512-0.93108 2.1452-0.93108 2.2117 0 1.8504 2.0516-0.84253 4.7958-3.2025 3.2648-3.376 3.9164-1.2519 4.4104 1.043 0.24237 1.4015 0.80662 1.1234 1.7496-0.46008 1.5655-2.6534 1.845-4.1382 0.52316-1.1136-0.99069-1.1418-0.9377-1.3295 1.796-0.1553 2.282-0.01413 2.3324 2.7861 0.90993 2.7409-1.3947 3.2701-1.3602 3.2701 0.29533 0 0.77086-1.1954 2.233-2.6576 3.2502-1.9943 1.388-2.2159 1.7562-0.9202 1.4542 1.1291-0.26224 1.8998 0 2.2229 0.75101 0.70422 1.6317 1.2744 1.4966 6.721-1.6596 2.6718-1.5496 5.2631-2.6887 5.7486-2.5231 1.7022 0.58012 0.62106 3.3562-1.7628 4.523l-2.4022 1.1602 2.1975 0.2265c1.1983 0.12717 2.3712 0.68478 2.6055 1.2278 0.45871 1.0636-1.585 2.1059-2.8102 1.4318-0.40933-0.22385-0.76633-0.059601-0.76633 0.36421 0 0.42383-0.64362 0.78677-1.4312 0.81853-1.0388 0.041031-1.1121 0.16161-0.28082 0.45427 0.86664 0.30597 0.69577 0.7179-0.741 1.6821l-1.9167 1.2728 3.4241 0.5232c3.5228 0.52974 4.3245 1.6992 2.2229 3.2502-0.79172 0.58542-1.6273 0.64371-2.5546 0.18277-1.5426-0.76819-4.4458-0.33905-4.4458 0.6583 0 0.35364-0.73682 0.65953-1.6358 0.65953-0.89911 0-1.6345-0.32712-1.6345-0.72713 0-0.39998-0.82846-0.71782-1.8404-0.70459l-1.839 0.0225 2.0183 1.4781c1.5681 1.1603 1.7628 1.6132 0.89343 2.0914-1.2266 0.67415-3.3464 0.18144-4.3937-1.0238-0.37976-0.43573-0.47846 0.11127-0.20468 1.2278 0.40793 1.6662 0.22443 2.0013-1.1503 2.0013-0.90756 0-1.6767-0.40929-1.712-0.9099-0.043762-0.62117-0.20041-0.58142-0.51096 0.11391-0.33032 0.74434-0.74377 0.54167-1.5074-0.72713l-1.0472-1.751-1.0232 1.9999c-0.56177 1.098-0.76074 2.2318-0.43335 2.5245 0.32886 0.29135 3.259 0.64897 6.515 0.79463 5.4495 0.24506 6.2385 0.098038 9.8375-1.9324 3.5835-2.0211 6.2087-2.3589 6.2087-0.79468 0 0.34436-1.0119 1.147-2.2484 1.7721l-2.2483 1.1377 2.8622-0.4781c2.8299-0.46094 7.592-2.6437 9.6836-4.4555 0.59421-0.51518 1.7897-0.93242 2.6563-0.93242 1.6668 0 2.0987 1.4066 0.79324 2.5694-0.49121 0.43573 0.76636 0.78809 3.424 0.93242 2.3133 0.12448 4.5178 0.39206 4.8792 0.59073 2.6887 1.4781-3.9365 4.1628-8.738 3.5456l-3.2956-0.4093 2.2991 1.1602c1.3917 0.70196 2.2103 1.6436 2.0437 2.3867-0.39807 1.7788-3.9308 1.1828-6.1834-1.0464-1.0486-1.037-2.4657-1.7152-3.2702-1.5456-1.1292 0.23973-0.9823 0.48079 0.74103 1.1139 2.7846 1.0238 3.6286 2.2198 1.942 2.7959-0.72968 0.24905-1.1418 0.87155-0.92023 1.3867 0.22305 0.51523-0.14536 1.1205-0.79184 1.3417-0.6463 0.21983-1.1756 0.11394-1.1756-0.2278 0-0.59468-2.6422-1.6132-4.6252-1.796-0.52081-0.047699-1.7162-0.72054-2.6563-1.4768-0.93991-0.75752-1.7119-1.1324-1.7119-0.84102 0 0.75502 1.7868 2.2397 3.9095 3.2503 1.0021 0.47679 1.8137 1.1933 1.8137 1.5907 0 1.3721-2.5179 1.5854-4.0634 0.34172-1.4749-1.188-1.5243-1.1775-1.098 0.27283 0.62372 2.1218-1.0501 1.9112-2.7086-0.34169-1.0374-1.4079-1.5454-1.6291-2.0691-0.90857-0.56882 0.78273-0.8017 0.77609-1.3804-0.022537-0.38806-0.53508-1.3986-0.8914-2.2484-0.796-3.2984 0.37349-7.6356-2.2502-7.7682-4.7058-0.069153-1.3244-0.151-1.2847-0.66342 0.29535-0.48691 1.5019-0.084717 2.2304 2.3246 4.1601 1.6062 1.2861 5.1897 3.3999 7.973 4.7058l5.0584 2.3642 3.935-1.7509c2.1637-0.9615 4.3951-1.8145 4.9568-1.9086 1.4593-0.2477 1.2618 1.1576-0.40936 2.9098-1.2872 1.3483-1.2801 1.3854-0.025421 0.52182 0.76782-0.5271 1.7064-0.78142 2.0959-0.56821 0.38821 0.21462 1.7332-0.079422 2.9894-0.65956 3.0119-1.3894 3.9504-1.3205 3.3986 0.22783-0.36694 1.0278 0.016968 1.2569 1.993 1.2052 1.345-0.035751 2.6379-0.25694 2.8863-0.4781 0.99643-0.88474 3.6287 0.4185 3.6287 1.796 0 1.1192-0.39804 1.3748-1.7121 1.0688-1.6414-0.38144-1.6513-0.34695-0.28082 0.99998 1.4805 1.4556 1.2378 1.6556-1.8659 1.4318-1.4255-0.10199-1.7219 0.14307-1.3027 1.1152 0.44177 1.0238 0.15948 1.196-1.5328 0.90858-1.6922-0.2874-1.983-0.11658-1.6612 0.97748 0.43756 1.486-0.080383 1.6463-2.1199 0.68207-2.0056-0.94829-4.5362 2.0635-2.8877 3.433 0.92163 0.7655 1.201 0.73503 1.5581-0.091446 0.24426-0.56685 1.6938-1.0384 3.2971-1.0913 1.5709-0.052933 2.6704 0.1947 2.4262 0.54567-0.24274 0.351 0.27521 0.45958 1.1757 0.25037 2.0649-0.48084 2.1284 0.62384 0.10162 1.7509-1.0726 0.5947-1.4043 1.396-1.1235 2.7046 0.49402 2.3006 0.61969 2.3204 3.6287 0.06752 1.3352-0.99998 2.9626-1.8185 3.6019-1.8185 1.3704 0 1.441 0.35762 0.38388 2.1138-0.85812 1.4265-0.3204 1.4609 5.8756 0.40924 2.0198-0.34169 3.067-0.24637 3.067 0.27289 0 0.9417-4.2454 3.0237-6.1834 3.0237-1.1178 0-1.1827 0.18282-0.35846 1.0689 0.81293 0.87018 0.78476 1.1721-0.17786 1.4993-0.65912 0.22516-1.5384 0.34038-1.9421 0.27286-1.7077-0.28345-2.772 0.12843-2.5814 0.97745 0.12561 0.55893-0.6633 0.88872-2.0437 0.86482-1.7304-0.031708-2.2526 0.30334-2.2737 1.4543-0.025421 1.4358-0.090393 1.4212-1.6359-0.22774-1.2759-1.3629-1.609-1.4636-1.609-0.49937 0 0.66751-0.367 1.0212-0.81723 0.77219-0.45157-0.2477-1.1686 0.39865-1.6104 1.433s-1.3634 2.0622-2.0437 2.2953c-0.68164 0.23309-1.2518 0.87549-1.2518 1.433 0 0.55627-0.5914 1.0225-1.3296 1.0225-0.73685 0-1.8052 0.55493-2.3754 1.2502-0.97955 1.1907-1.1602 1.1801-2.964-0.18137l-1.9166-1.4331 1.4565 1.5231c0.87927 0.92981 3.6061 1.988 7.0513 2.7284 7.201 1.5456 8.9398 1.498 11.881-0.22784 2.7254-1.5973 4.055-1.302 3.3224 0.75098-0.41068 1.1509-0.098724 1.4079 1.8391 1.4079 1.29 0 2.7169-0.32587 3.1685-0.72711 0.5491-0.48874 1.3437-0.39206 2.4022 0.29535 1.5173 0.98804 1.4805 1.0794-1.0472 2.3641-1.9068 0.96954-2.5109 1.7059-2.1721 2.6608 0.30057 0.85034 0.066315 1.2662-0.63934 1.1815-2.3669-0.28744-3.2858 0.072815-2.8355 1.1139 0.78476 1.8184-2.2004 2.686-4.4713 1.2953-1.4904-0.91126-1.7107-0.95496-0.97107-0.1351 1.3804 1.5298 0.052246 3.1283-2.0959 2.5218-3.0952-0.87415-3.9307 0.52448-0.89337 1.5006 3.8997 1.2542 7.7909 1.2291 9.2488-0.067474 1.6132-1.4358 4.1171-1.453 3.5002-0.022614-0.38098 0.8848 0.1878 1.0027 3.194 0.63583 4.3993-0.53641 4.9498 0.67279 0.8949 1.9787-1.9675 0.6318-2.6634 1.2464-2.4022 2.1364 0.43607 1.4847-2.1454 2.3112-4.1396 1.3178-1.084-0.54038-1.3536-0.32849-1.3536 1.1139 0 1.4754-0.29916 1.727-1.7628 1.3867-1.4467-0.33646-1.657-0.19205-1.2011 0.86487 0.44601 1.0357 0.21878 1.237-1.0995 0.93106-0.9061-0.21057-1.6598-0.090057-1.6598 0.27289 0 1.2741-1.7304 0.63574-3.9096-1.4318-2.6252-2.4913-4.1805-3.0423-6.1071-2.1602-2.2399 1.0252-1.6796 1.853 1.0218 1.5006 2.8157-0.36813 3.2321 0.74048 1.201 3.3192-1.187 1.5072-1.1813 1.6132 0.33313 1.6132 0.89197 0 2.1862 0.49142 2.8609 1.0914 0.67468 0.60001 1.7727 1.0914 2.453 1.0914 0.68036 0 1.4509 0.30725 1.712 0.6821 0.25967 0.37476 1.9054 0.65823 3.6541 0.63702 1.7473-0.022522 3.6541 0.22247 4.2413 0.54568 0.58719 0.32187 2.2597 0.51785 3.7049 0.43045 2.1764-0.12979 2.6689 0.12976 2.8863 1.5007 0.19052 1.1919 0.82986 1.6714 2.3006 1.7284 1.1234 0.042358 2.412 0.16956 2.861 0.27286 0.4502 0.10196 1.4622 0.11658 2.2497 0.044983 0.78619-0.071503 1.4297 0.16165 1.4297 0.50064 0 0.96292-4.5248 3.1139-6.5657 3.1139-1.7882 0-1.8221 0.041016-0.38394 1.4542 1.4438 1.4199 1.4298 1.4556-0.66482 1.4556-1.6019 0-2.0239 0.27154-1.6597 1.1139 0.39654 0.91919 0.052185 1.0397-1.8659 0.63574-1.2929-0.27154-2.5349-0.4808-2.7593-0.47681-2.5504 0.043671-3.1431 0.29404-2.7592 1.1814 0.85382 1.9801-1.2646 1.9245-2.4784-0.067505-1.1559-1.8966-1.2208-1.9218-1.2519-0.38672-0.018341 0.90057-0.32748 1.6609-0.6648 1.7059-4.9963 0.64896-5.8149 0.43304-6.8213-1.7285l-1.0232-2.1827-0.7142 1.7284-0.7155 1.7496-1.585-1.8185c-1.568-1.8158-1.5652-1.8171-1.5835-0.18149-0.025391 2.2066-1.482 2.0821-2.1214-0.1814-0.28217-1.0013-0.87506-1.8185-1.3027-1.8185-0.42755 0-0.51224 0.35236-0.20468 0.79468 0.39105 0.56293-0.2413 0.6583-2.0945 0.29538-1.9675-0.38412-2.5814-0.29538-2.3259 0.38672 0.50238 1.3417 5.6244 3.6145 8.1508 3.6145 1.1954 0 2.3401 0.40924 2.556 0.90988 0.23999 0.55759 1.8391 0.87546 4.1637 0.84106 2.0818-0.033112 3.7826 0.19592 3.7826 0.49927 0 1.3999-2.8383 2.9152-5.0853 2.7059-1.3351-0.12451-2.4882 0.060883-2.5546 0.43173-0.21738 1.2119 4.5757 1.8927 16.224 2.2966 13.127 0.45294 18.398 0.96414 18.398 1.7496 0 0.30191 0.9202 0.396 2.0437 0.20398 1.1616-0.19608 2.0436-0.014587 2.0436 0.43308 0 1.0185-2.6704 2.2953-4.8284 2.2953-0.92865 0-1.712 0.32721-1.712 0.72717 0 0.39999 0.40085 0.72714 0.86795 0.72714 0.46848 0 1.6654 0.67676 2.6576 1.5231l1.7882 1.547-2.6562-0.3192c-1.7586-0.21326-2.6576-0.025146-2.6576 0.56815 0 0.53909-0.6535 0.75101-1.636 0.52322-0.91306-0.21326-1.6343-0.022583-1.6343 0.43173 0 1.1748-2.0805 1.0039-3.2716-0.2728-0.55893-0.60001-1.3748-1.0914-1.8391-1.0914-0.46429 0-0.25815 0.58676 0.48554 1.3192 0.74384 0.73111 1.3536 1.5496 1.3536 1.8184 0 0.77087-3.1178 0.58017-3.6781-0.22778-0.81012-1.1655-1.8926-0.84369-2.453 0.72711-0.65781 1.8411-1.5907 1.8291-4.549-0.044983l-2.3754-1.5006 0.5109 2.229c0.61539 2.7376-0.87082 2.9589-4.1904 0.63574-2.182-1.5271-2.2427-1.5258-1.3803-0.09137 1.0162 1.6887 0.52783 2.49-1.1757 1.9099-0.63516-0.21719-1.7064 0.006592-2.3754 0.49933-0.84543 0.62512-1.2265 0.65958-1.2265 0.09137 0-0.449-0.55182-0.81848-1.2265-0.81848s-1.2265 0.45026-1.2265 1.0224c0 0.70724-0.72403 0.97217-2.2483 0.81851-8.5122-0.8569 2.4967 3.5469 12.392 4.9561 6.4698 0.92184 7.1176 0.88608 9.2489-0.36285 1.2603-0.73908 2.7339-1.339 3.297-1.3417 1.6908-0.007904 1.1503 1.4477-0.81863 2.2052-1.3507 0.51923-0.86087 0.57355 1.8405 0.20398 2.024-0.27679 4.5983-0.45962 5.7232-0.40924 1.1249 0.050354 3.8686-0.38147 6.0817-0.95358 2.2118-0.57358 4.1454-0.94965 4.2921-0.81857 0.85248 0.75891-4.381 3.7575-7.3082 4.1827l-3.4749 0.4993 3.067 0.0914c2.134 0.063599 3.0656 0.42252 3.0656 1.1814 0 0.59994-0.64368 1.1444-1.4313 1.2052-0.7861 0.060944-1.7982 0.18018-2.2483 0.27286-0.44882 0.092712-1.3452 0.20398-1.993 0.25028-0.86655 0.061005-0.7579 0.35501 0.40927 1.1139 2.0198 1.3139 1.0615 2.2582-1.201 1.1814-1.4072-0.67017-1.712-0.60123-1.712 0.38678 0 0.9324-0.58441 1.1231-2.6576 0.86352-1.4608-0.18277-3.393-0.56952-4.2922-0.86352-1.6118-0.52585-1.5906-0.52054-0.025269 0.61319 1.5934 1.1549 1.2519 1.4225-1.4058 1.1828-0.81436-0.074158-1.4312 0.37616-1.4312 1.0225 0 1.5562-0.6619 1.4278-2.6054-0.49936l-1.6612-1.637 1.3281 1.9774c0.72403 1.0861 1.3042 2.3059 1.3042 2.7284 0 1.1245-4.0112 0.29404-5.9279-1.2278-1.6062-1.2755-1.6189-1.2516-0.99646 0.52313 0.8638 2.4648 1.8673 2.9867 9.4027 4.9998 6.2581 1.6741 6.6364 1.6953 10.015 0.54568 3.6838-1.2516 8.7647-1.6079 8.7647-0.61328 0 0.31921-0.42764 0.99472-0.97104 1.4781-0.66464 0.59076 0.42914 0.49799 3.3464-0.27283 2.3881-0.6304 4.8989-0.96552 5.5962-0.72708 1.0684 0.36417 0.97247 0.72577-0.61255 2.2264l-1.8659 1.7735 2.7593-0.7047c3.5567-0.90726 7.8783-0.90594 8.5093 0 0.64926 0.93643-4.8186 2.9284-8.0492 2.9324h-2.58l2.4008 1.7046c2.3712 1.6887 2.3485 3.9031-0.025452 3.0926-0.78891-0.2702-1.1488 0.16952-1.1488 1.4092 0 1.2887-0.42767 1.796-1.5596 1.796-0.86658 0-2.1467 0.49933-2.8355 1.1126-1.0402 0.92709-1.5285 0.95096-2.9131 0.18277-0.91739-0.50992-1.6866-1.1735-1.6866-1.4781 0-0.30328-0.64505 0.027832-1.4566 0.72714-1.5652 1.351-2.0112 3.0926-0.79181 3.0926 0.40088 0 0.46155 0.35226 0.15387 0.79596-0.38953 0.55899 0.21591 0.66492 1.9929 0.3179 1.6302-0.31918 2.5546-0.22916 2.5546 0.27286 0 0.44501 1.5907 0.79468 3.6795 0.79468 3.832 0 4.5547 0.63171 2.4531 2.1826-0.81876 0.604-2.5491 0.76556-5.1108 0.47687l-3.8828-0.4305 3.0402 1.4304c2.1115 0.996 2.8934 1.7854 2.5546 2.5695-0.30344 0.7059-0.98508 0.94165-1.8136 0.63702-0.72968-0.26886-1.8814-0.56287-2.5561-0.65955-0.67462-0.09668-0.76642-0.035767-0.20328 0.13641 2.0706 0.63309 1.0007 1.8012-1.2264 1.3417-1.6091-0.33377-1.9083-0.25833-1.0487 0.24899 2.1637 1.2781 0.24277 1.6476-2.3499 0.45428-1.3916-0.6384-2.5293-0.85294-2.5293-0.47681 0 0.37747 0.46014 0.84497 1.0219 1.0225 0.56168 0.17883 0.73666 0.59607 0.38242 0.93243-0.35425 0.33643-1.6908 0.25427-2.9893-0.18146-1.9322-0.64899-2.3006-0.60394-1.9421 0.22784 0.31616 0.73108 0.023926 0.86749-1.0726 0.52182-1.2759-0.40134-1.3578-0.30597-0.46014 0.54565 0.83698 0.79468 3.6514 0.9841 12.878 0.86352 7.1388-0.092651 11.805 0.1232 11.805 0.54572 0 0.38538-0.57016 0.70462-1.2773 0.70462-0.70703 0-1.7966 0.46222-2.4276 1.0238-0.98373 0.87549-0.96405 1.0821 0.12845 1.4542 0.6987 0.23975 2.4333 0.42648 3.8573 0.43182 3.005 0.013214 5.0655 0.96155 4.3443 2.0012-0.89197 1.2834-4.9497 1.5165-8.3046 0.47675-4.4713-1.3867-4.7141-1.3072-2.4022 0.75101 2.8834 2.5642 2.6746 4.1112-0.43326 3.3178-1.3353-0.34042-2.8073-0.83575-3.2717-1.0913-0.46432-0.25427-0.8765 0.14035-0.94418 0.86484-0.069183 0.72314-0.1807 1.6874-0.23016 2.1589-0.049347 0.47156-0.33862 1.0967-0.63931 1.3642-0.64499 0.57352-5.5694-1.8794-5.5694-2.7734 0-0.3378-0.33447-0.41989-0.76642-0.18152-0.50378 0.27682-0.50378 1.094 0 2.2728 0.43195 1.0119 0.76642 2.1668 0.76642 2.5681 0 0.96289-3.8644-1.5271-7.7428-4.9773-2.8921-2.5747-3.3055-2.135-0.61258 0.65958 0.66052 0.68472 0.95541 1.8026 0.66467 2.4767-0.47131 1.0914-0.74097 1.0278-2.6068-0.52179l-2.1214-1.7285 0.2823 1.8185c0.25821 1.6701 0.81576 1.89 6.8212 2.7734 4.2215 0.62116 6.985 0.71655 7.7938 0.27283 2.0493-1.1258 6.515-1.7946 6.515-0.97745 0 0.40396-0.64358 0.89004-1.4312 1.0688-0.7861 0.1788 0.40936 0.17487 2.6576 0 3.2872-0.25693 3.8884-0.14703 3.0656 0.59073-1.5624 1.4039-1.2124 1.9258 1.0219 1.5456 2.6435-0.449 6.3526 0.39075 5.7245 1.2953-0.27087 0.3894-1.3281 0.70462-2.3513 0.70462-3.4946 0-3.0035 1.0013 1.2519 2.5244 7.2545 2.5933 5.671 4.523-1.7883 2.1814-3.7754-1.1854-5.2531-0.97882-2.4784 0.3417 0.93713 0.44632 1.6866 1.3258 1.6866 1.9549 0 0.87686-0.49539 1.0331-2.1722 0.6583-1.9293-0.43051-2.0748-0.35892-1.1248 0.65961 2.2032 2.3615-0.13275 2.3681-3.7812 0-1.7035-1.1046-1.7713-1.094-1.3026 0.52313 0.4389 1.5165 0.35141 1.5907-0.89493 0.68207-1.2293-0.89795-1.3126-0.85556-0.81717 0.36429 0.4884 1.2039 0.29501 1.1642-1.4819-0.27289-2.0832-1.686-3.3634-1.543-2.5801 0.27289 0.62384 1.4476-1.3365 1.2556-4.4459-0.43317-1.4819-0.80258-2.6576-1.0794-2.6576-0.63571 0 0.49274-0.85675 0.62116-2.2484 0.34039-1.5214-0.30597-1.8517-0.24109-1.0218 0.20526 0.67319 0.3616 3.249 1.0225 5.7231 1.4768 5.3238 0.97739 6.978 1.7748 6.1579 2.9562-0.56454 0.81058-1.6641 0.72314-6.5672-0.45563-1.2519-0.30066-1.0134 0.16156 1.0218 1.9099 1.4622 1.2556 2.6577 2.4344 2.6577 2.637 0 0.72183-4.5463-0.17484-7.1544-1.4092-2.8666-1.3562-3.307-0.94168-1.4057 1.2954 1.6612 1.9536 1.5016 2.8144-0.43335 2.3641-1.0627-0.24634-1.6358-0.00528-1.6358 0.65955 0 1.3603-0.74811 1.2861-2.6577-0.2503-1.5088-1.2145-1.5765-1.2079-1.3027 0.18146 0.4375 2.2198-4.0987 1.5509-6.515-0.95361l-1.8913-1.9562 0.5363 2.3642c0.70999 3.1297-1.3422 3.2118-4.5221 0.18274-1.2603-1.2013-2.398-2.1827-2.556-2.1827-0.15671 0-0.34012 0.84631-0.40793 1.8874-0.18628 2.8595-1.5186 3.6303-3.2193 1.8635-1.3438-1.396-1.5356-1.4225-2.5292-0.27277-0.9852 1.1377-1.0952 1.1204-1.5597-0.34042-0.29916-0.94568-0.94705-1.4317-1.609-1.2052-0.70572 0.24106-1.3112-0.3298-1.6612-1.5682-0.37824-1.343-0.75934-1.682-1.2011-1.0463-0.3529 0.50858-1.4072 1.0318-2.3501 1.1589-1.3323 0.18146-2.1143-0.48209-3.5002-3.0224-1.7925-3.2807-3.6824-4.5456-2.7085-1.8185 0.62811 1.7615 0.15533 1.8079-2.4784 0.27286-1.1094-0.64633-2.0438-1.8742-2.0959-2.7284-0.076202-1.2424-0.18497-1.298-0.4855-0.27286-0.621 2.1192-1.8899 0.64768-1.9168-2.2278-0.019714-2.1761-0.1665-2.441-0.84253-1.4092-0.45871 0.70062-1.5992 1.2728-2.5292 1.2728-1.6119 0-1.674 0.26617-1.1504 5.6382 0.36557 3.7535 1.225 6.8157 2.5547 9.1599 0.78049 1.3735 1.434 2.5973 1.7643 3.2741h-20.34c-0.90182-0.64233-0.49542-1.7695 0.43469-3.7508 1.4496-3.0873 2.0084-9.3918 0.86798-9.7296-0.44446-0.13238-1.4481 0.72848-2.2483 1.9325-1.489 2.245-3.3224 3.0714-2.4786 1.1139 0.96542-2.2397-0.5546-1.0132-1.6598 1.3417-0.88208 1.8781-1.5892 2.4396-3.067 2.3416-1.0585-0.071503-2.4558 0.2132-3.0909 0.63571-0.82855 0.55234-1.2477 0.5285-1.482-0.090027-0.21735-0.5748-0.8652-0.39072-1.9167 0.54434-2.1044 1.8728-3.1516 1.7827-2.6576-0.22653 0.23572-0.95755 0.1199-1.3204-0.28094-0.8635-0.94275 1.0742-3.551 1.8568-3.551 1.0675 0-0.7338-4.5137-0.47415-6.8735 0.38672-1.242 0.45297-1.472 0.31125-1.0726-0.61328 0.27805-0.64368 0.076233-1.3032-0.46011-1.4781-0.74521-0.24365-0.75507-0.56021 0.025452-1.2966 1.856-1.7496 1.0867-1.9761-1.9675-0.5907-3.3762 1.5324-4.3189 1.3072-2.6831-0.61328 0.87512-1.0278 0.88635-1.1112 0.025391-0.43173-0.59418 0.46887-1.5779 0.68869-2.1976 0.47681-0.61957-0.2106-1.1489-0.092712-1.1489 0.27286 0 0.36685-0.4996 1.2847-1.1248 2.0463-0.97946 1.1934-1.3394 1.2463-2.5038 0.38547-1.1744-0.86621-1.5045-0.75891-2.6576 0.70587l-1.3282 1.6821-0.7409-1.7509c-0.68309-1.6264-0.80876-1.6582-1.7882-0.47678-1.2942 1.5602-1.873 1.584-3.4748 0.1589-0.99648-0.88608-1.053-1.3285-0.25552-2.1827 0.54913-0.58942 0.75519-1.0675 0.4602-1.0675-0.29646 0-0.1143-0.73639 0.40784-1.637 0.79465-1.3695 0.49542-1.29-1.8136 0.56821-5.088 4.0939-5.4241 4.2436-6.8735 2.9549-0.72127-0.64243-1.0232-1.5602-0.69017-2.0688 0.34152-0.51916-0.077652-0.4331-0.97105 0.20532-4.3217 3.0873-8.6985 3.6952-5.7486 0.79465 1.3324-1.3086 1.2872-1.4106-0.84258-1.886l-2.223-0.5006 2.4022-1.7271c3.1404-2.2847 1.4608-2.29-3.0415 0-1.9577 0.99463-4.038 1.8132-4.5998 1.8185-1.6499 0.014526-1.1728-1.1457 0.81865-2 1.6557-0.71121 1.53-0.7973-1.4565-0.841-1.8263-0.027802-4.0338-0.52713-4.906-1.1152-1.5102-1.0159-1.4904-1.0675 0.84262-1.09 3.5031-0.034424 15.957-2.0516 18.55-3.0012 3.1785-1.1629 3.7798-2.9416 0.63934-1.886-2.7564 0.92447-4.1495 0.16028-2.1213-1.1602 1.1785-0.76553 0.79887-0.85693-2.3246-0.63574-3.9872 0.28214-4.8368-0.61322-1.8646-1.9549 1.5907-0.72049 1.3211-0.81052-2.1466-0.65955-4.6802 0.20395-5.9998-1.1642-1.9674-2.045l2.683-0.5921-2.6577-0.2728c-3.1122-0.3298-3.3859-1.0781-0.81722-2.2503 1.5017-0.68607 0.86656-0.77875-3.4749-0.4556-4.8933 0.36554-5.1671 0.30725-3.7049-0.72711 0.87221-0.61719 2.2272-1.1139 3.0148-1.1139 0.78758 0 1.6654-0.36023 1.966-0.79468 0.34441-0.49533-0.16789-0.74963-1.3789-0.65961-3.4156 0.25302-5.6202 0.013275-5.6202-0.63702 0-0.34836 2.5913-0.85956 5.7486-1.1364 3.1559-0.27679 5.5637-0.76819 5.3393-1.0901-0.22436-0.32446-2.58-1.0212-5.2377-1.5456-5.0119-0.98941-8.1847-2.4715-7.1798-3.3655 0.51379-0.45694 5.0641 0.20267 11.14 1.637 1.8673 0.43973 1.8206 0.30325-0.74089-1.6596-4.2131-3.2304-1.8349-3.5628 4.2411-0.59064 6.1029 2.984 9.5962 3.2276 16.352 1.1588 7.6682-2.347 20.104-7.964 21.03-9.5017 1.1461-1.9059 0.49405-1.8489-1.585 0.13641-0.91742 0.87552-1.6866 1.3245-1.6866 1 0-0.32452-0.55188-0.18012-1.2264 0.31784-1.0121 0.74832-1.2265 0.67944-1.2265-0.4079 0-1.0966-0.41782-0.96158-2.5547 0.81717l-2.5546 2.1377 0.4855-2.3416c0.48978-2.3085 0.45587-2.3323-1.7374-1.5006-1.2222 0.46222-2.7748 1.2198-3.4494 1.6821-3.1714 2.1708-3.5398 2.1231-2.9639-0.43176 0.4333-1.9298 0.34862-2.2662-0.43474-1.5682-1.4226 1.2649-4.7775 1.1218-4.7775-0.20529 0-1.3549-1.3211-1.4238-2.1989-0.11255-0.35857 0.53641-1.6754 1.5403-2.9117 2.2502-1.8546 1.0635-2.2484 1.102-2.2484 0.2265 0-0.58408 0.73537-1.6397 1.6344-2.3642 0.90054-0.72311 1.6358-1.6635 1.6358-2.0688 0-0.40396-0.20604-0.5192-0.48552-0.27283-0.27802 0.24896-1.0868-0.056946-1.7883-0.68082-0.88492-0.78802-2.2144-1.0278-4.3442-0.77347-2.1186 0.25296-3.2095 0.059601-3.5002-0.61322-0.32044-0.74432-1.0642-0.81986-3.1178-0.29669-7.2109 1.841-8.5375-0.25693-1.5836-2.4992 4.7014-1.5178 5.2956-2.2834 0.8949-1.1603-5.5948 1.4278-12.872 0.34702-9.7866-1.4542 0.67461-0.39471 2.882-0.76556 4.906-0.81854 3.1248-0.082092 3.328-0.15628 1.3026-0.54565-1.3111-0.25296-2.5489-0.91653-2.7592-1.4781-0.31903-0.85168 0.97095-0.94833 7.9208-0.52188 8.1832 0.50067 8.3131 0.50067 7.3082-0.9324-1.4974-2.1338-0.46855-2.5033 3.6019-1.2729 2.2018 0.66489 5.026 0.9444 7.232 0.70465 4.7267-0.51392 20.365-5.176 22.203-6.6157 1.9208-1.5033 1.8136-2.5469-0.20331-1.9774-0.91742 0.25958-1.6358 0.12711-1.6358-0.29535 0-0.7894-1.2251-0.56162-5.3153 1.0225-1.3479 0.52313-4.3104 0.96686-6.5926 0.97745-2.2808 0.011963-4.4882 0.088745-4.9046 0.16028-1.9139 0.32446-2.1157-0.17218-0.69022-1.6834 1.0261-1.086 0.7029-0.96286-0.94556 0.36426-2.827 2.2767-3.6273 2.4661-3.6273 0.88736 0-0.96155-0.26399-0.9549-2.0959 0.11264-1.2336 0.71918-2.3401 0.94565-2.6576 0.54565-0.29787-0.37613-1.6444-1.1086-2.9894-1.637-2.3458-0.91916-2.3839-0.99069-0.86804-1.9774 1.8503-1.2039 1.3803-1.3033-1.5328-0.31784-1.5835 0.5351-2.1213 0.48474-2.1213-0.22784 0-0.57483-2.0748-1.3297-5.3139-1.9323-2.9244-0.54178-5.3153-1.2848-5.3153-1.6357 0-0.35232-0.3459-0.4278-0.79179-0.18277-0.44608 0.24506-1.4651 0.11789-2.2484-0.27286-1.2462-0.61981-1.1348-0.7854 0.84262-1.2264 1.7049-0.38141 2.1426-0.82782 1.7882-1.8184-0.34724-0.97351 0.018417-1.3656 1.4058-1.5457 1.3238-0.1748 0.38391-0.68472-3.2194-1.7059-5.5834-1.5814-6.9624-3.0132-2.0691-2.1589 4.5178 0.78809 15.739 0.96686 15.739 0.25037 0-0.34174-0.36702-0.61459-0.81724-0.61459-0.45027 0-0.81722-0.33115-0.81722-0.72711 0-0.39734 1.7473-0.698 3.8827-0.65961 5.3648 0.09671 13.942-1.498 14.463-2.7046 0.29361-0.67941-0.2357-1.0013-1.609-1.0013-1.1108 0-2.0197-0.3165-2.0197-0.70459 0-0.38669-0.55185-0.52582-1.2266-0.29535-0.67456 0.2305-1.2265 0.033142-1.2265-0.43176 0-0.55762-0.61668-0.45166-1.8136 0.29666-0.99927 0.6225-2.748 1.1258-3.8842 1.1125l-2.0691-0.0225 1.8898-1.4092 1.8659-1.3867-3.9096-0.2278-3.935-0.249 2.8623-1.2278 2.8623-1.2278-2.5053-0.0225c-1.5948-0.018524-3.2264-0.68741-4.4458-1.841-1.0557-1.0012-2.2964-1.8198-2.7847-1.8198-0.48834 0-1.3747-0.66757-1.942-1.4768-1.4947-2.1297 0.40924-2.5562 5.1107-1.1363 5.0697 1.5311 6.1198 1.4886 5.5948-0.29541-0.51506-1.7575-0.38106-1.7668 4.7535-0.27286 3.9054 1.1364 4.3119 1.1033 10.552-0.47812 8.4161-2.1311 10.574-4.1283 4.0887-3.7959-0.66759 0.034424-1.4721-0.29401-1.7882-0.74966-0.40228-0.58014-1.0798-0.4437-2.223 0.47684-1.2816 1.0317-2.3528 1.2092-4.9582 0.81848-3.7148-0.55893-3.9448-0.83569-1.8898-2.3416 1.4706-1.0768 0.92725-1.0437-2.5801 0.20523-1.2576 0.44632-1.4665 0.31259-1.0488-0.65961 0.3882-0.89792 0.076248-1.2052-1.1742-1.2052-1.139 0-1.5554-0.34436-1.252-1.045 0.24707-0.57486 0.025421-1.2093-0.51091-1.4092-0.68584-0.25696-0.59274-0.67413 0.35718-1.3642 1.2419-0.90329 1.1912-1.1151-0.61392-2.6595-2.9442-2.5218-2.3981-3.0502 1.9166-1.8185 10.729 3.0608 14.664 3.2436 17.298 0.74966 1.4933-1.4132 1.5793-1.7986 0.58852-2.1364-0.66753-0.22781-2.3146-0.049011-3.6795 0.40921-3.4945 1.1722-4.2426 0.002625-1.3294-2.0913 2.0422-1.4701 2.1792-1.7417 0.81853-1.637-2.861 0.21985-4.4981-0.068909-4.4981-0.81854 0-0.39996 0.64358-0.74829 1.4311-0.7721 1.1588-0.038422 1.1179-0.18018-0.28081-0.68347-0.94989-0.34039-1.9449-1.1298-2.2229-1.7721-0.43614-1.0132-0.27388-1.0583 1.3027-0.27286 2.8524 1.4199 19.892 1.2026 23.482-0.29535 2.5093-1.0477 2.6421-1.1987 0.94559-1.2503-1.5483-0.047699-1.8644-0.35095-1.5074-1.5695 0.40091-1.3642 0.31335-1.4172-0.92014-0.47681-1.7911 1.3655-4.2413 2.1284-4.2413 1.3191 0-0.35095-0.73529-0.48209-1.6343-0.2728-0.91473 0.21191-1.6359 0.021179-1.6359-0.43182 0-0.44763-0.9202-0.79599-2.0437-0.79599-2.7184 0-2.5829-0.72446 0.56174-3.0237l2.6307-1.9099-4.3682 0.6145c-4.5065 0.63312-6.1466 0.36954-5.2885-0.86487 0.83694-1.2052-1.3606-2.8185-3.8333-2.8185-2.7861 0-3.1714-1.2013-0.53633-1.7045 1.0444-0.20004 0.60265-0.32715-1.0219-0.27286-1.8601 0.062286-2.7903-0.19598-2.6576-0.77212 0.11159-0.48746-0.18491-0.88742-0.69017-0.88742-0.61678 0-0.58571-0.37085 0.12703-1.1364 0.67744-0.7258 1.8277-1.0172 3.1686-0.77341 1.1587 0.21051 1.6358 0.21848 1.074 0-1.887-0.72986-1.0515-1.894 1.0218-1.4318 1.6584 0.37082 1.9139 0.22644 1.482-0.77219-0.38532-0.89532-0.21733-1.057 0.58714-0.61459 0.60413 0.33249 2.0353 0.66492 3.194 0.7497 1.1588 0.08609 3.0162 0.38275 4.1397 0.66089l2.0438 0.4993-2.2484-1.7058c-2.5984-1.9828-2.9753-3.1456-0.66473-2.045 2.2807 1.0847 3.9547 0.99466 2.6844-0.13641-1.8362-1.633-1.1122-2.9204 0.76492-1.3642 0.96121 0.79599 2.8878 1.9311 4.2936 2.5231 4.9949 2.1086 18.474-0.76154 18.474-3.9322 0-0.63443 0.45584-1.5431 0.9964-2.0225 0.65631-0.58411 0.67459-0.86487 0.076233-0.86487-0.49252 0-1.0952 0.49002-1.355 1.0914-0.29779 0.694-1.4665 1.0555-3.1686 0.99988-1.4749-0.047668-3.5102 0.16165-4.5221 0.45566-1.5102 0.43838-1.8391 0.24365-1.8391-1.0013v-1.4992l-2.7847 1.4542c-2.0028 1.0504-2.9526 1.241-3.3733 0.63708-0.32181-0.46356-0.083221-1.1522 0.53641-1.5231 0.97098-0.58142-3.8024-0.50458-7.0514 0.11386-0.45026 0.084869-1.6542-0.092621-2.6831-0.38669-1.7275-0.49399-1.7586-0.64236-0.56314-1.8185 1.2012-1.1801 1.1348-1.298-0.79175-1.7284-2.3627-0.52713-2.8327-1.8887-0.66336-1.9311 0.90189-0.018524 0.52219-0.392-1.0232-1.0238-1.3479-0.551-3.5341-1.7986-4.8539-2.7734l-2.3767-1.7734 2.9893-0.4994c1.6584-0.27676 3.0161-0.8158 3.0161-1.2052 0-0.40799 0.95132-0.51386 2.2484-0.22647 1.9632 0.43445 2.1354 0.36948 1.2265-0.6145-1.5794-1.7059 0.77203-2.2264 3.1925-0.70468 1.1334 0.71258 3.5921 1.2424 5.9533 1.2728 3.2223 0.042389 3.681-0.10068 2.2752-0.65961-1.5907-0.6304-1.7473-1.2238-1.0486-3.9998 0.033813-0.13245 1.297 0.43967 2.8113 1.2728 1.5145 0.83301 3.9986 1.5046 5.5186 1.5006 5.098-0.014648 13.873-3.037 19.445-6.7058 2.1452-1.4131 1.6909-1.7058-0.79327-0.52316-1.2871 0.61325-1.5893 0.51129-1.609-0.54568-0.024048-1.2397-0.063507-1.2529-0.86942-0.022491-0.46292 0.70859-1.1743 1.1113-1.5836 0.88608-0.40936-0.22516-1.6739 0.13248-2.8101 0.79599-2.045 1.192-2.0579 1.1748-2.0705-0.88608-0.005676-1.147-0.28229-1.7138-0.61255-1.2741-0.71564 0.95364-3.8051 2.4781-5.033 2.4781-0.47986 0-0.92731-0.73639-0.97098-1.637-0.077759-1.5536-0.10031-1.5443-0.63937 0.18274-0.31192 1-0.74103 1.6675-0.94574 1.5006-0.20319-0.16821-1.1375 0.055664-2.0691 0.49939-1.3817 0.65689-1.904 0.55096-2.8101-0.56818-0.61249-0.755-1.4283-1.1907-1.8149-0.97751-0.38532 0.21188-0.44601-0.45953-0.15247-1.5006 0.51096-1.8118 0.44177-1.8648-1.712-1.1364-2.6591 0.89934-3.4847 0.45299-2.0452-1.0914 0.86096-0.92175 0.77631-1.0913-0.43335-1.0913-1.376 0-1.3577-0.076904-0.026764-1.3867 0.77481-0.76024 1.0586-1.5655 0.63937-1.796-0.41916-0.23047-1.403 0.21988-2.1975 1.0013-1.2463 1.2238-2.0465 1.3337-5.2123 0.77214-0.16797-0.02916 0.086151-0.48605 0.58853-1.0225 1.0628-1.1417 0.43335-1.9324-1.5595-1.9324-0.7749 0-2.2851-0.64499-3.3465-1.433l-1.9421-1.4305 2.453-0.1377c1.3494-0.075546 3.355-0.064865 4.4446 0.022583 1.7288 0.14034 1.8602 0.006592 0.92014-1-1.7867-1.9152-0.52924-1.9112 2.6322 0 3.427 2.0728 5.4918 2.433 3.8588 0.68207-0.86508-0.9258-0.81576-1.0424 0.30627-0.65822 1.5597 0.53241 1.7869-0.45697 0.38394-1.7059-2.0959-1.8635 0.12561-1.5828 2.7071 0.34172 5.0825 3.788 5.7063 3.9098 11.448 2.3642 6.0182-1.6212 10.055-3.6436 11.267-5.6608 0.74387-1.2344 0.57449-1.4092-1.1996-1.3179-1.1192 0.057007-2.2088 0.61195-2.4276 1.2265-0.22015 0.61591-1.1757 1.1656-2.1214 1.2278-1.3789 0.092728-1.6216-0.19736-1.2518-1.4543 0.40924-1.3946 0.237-1.3443-1.4566 0.40933-1.0459 1.0834-2.7156 1.9774-3.7303 1.9774-1.6034 0-1.7925-0.27676-1.379-2.1138 0.61832-2.7536-1.3013-3.5138-3.297-1.2953-1.3634 1.5139-5.9617 2.5788-5.9786 1.3867-0.004181-0.29671 1.1926-1.4119 2.6576-2.5019 2.031-1.5099 2.3104-1.9853 1.2011-1.9999-0.80164-0.010574-1.6598 0.44765-1.9167 1.0463-0.25833 0.59732-0.77911 0.93111-1.1503 0.72713-0.37118-0.204-0.89206-0.042435-1.1757 0.36421-0.28223 0.40662-1.4988 0.74962-2.6816 0.74962-2.0607 0-2.0819-0.052933-0.56317-1.045 1.5314-1.0013 1.5045-1.0662-0.71558-1.8198-1.266-0.4304-2.7368-0.7814-3.2702-0.79468-0.53214-0.014542-0.050873-0.49138 1.074-1.0463 1.993-0.98276 1.9717-1.0052-1.1249-0.74966-2.0055 0.16425-3.6046-0.11653-4.3443-0.77345-1.7967-1.5987-0.52219-2.5006 3.5271-2.5006 2.261 0 3.4805-0.2993 3.1672-0.74962-1.029-1.4834 1.9886-1.5086 5.3915-0.046371 4.1706 1.7933 4.9442 1.8834 4.3189 0.43176-0.29648-0.68469 0.008392-1.09 0.81717-1.09 0.81012 0 1.1136-0.40662 0.8172-1.0914-0.55051-1.2768-0.26672-1.3205 2.4276-0.40924 1.753 0.59201 1.9449 0.50061 1.5836-0.72716-0.42908-1.4622 0.94269-1.9734 1.8404-0.68207 0.28226 0.40526 2.014 1.4357 3.8587 2.2727 2.9654 1.3457 3.7317 1.4132 6.642 0.63708 2.7156-0.72446 3.0613-0.99863 1.9168-1.5695-0.76358-0.38013-1.4044-1.1854-1.4044-1.796 0-0.86096 0.83704-1.0649 3.7035-0.90862 2.789 0.15236 4.0733-0.15625 5.2645-1.2277 1.794-1.6145 3.5285-7.3812 2.4008-8.0011-0.69586-0.38411-1.0867 1.1655-0.79178 3.1589 0.076233 0.5112-0.64365 1.9085-1.609 3.1151-1.4015 1.751-1.9971 2.0172-2.9131 1.3404-0.63086-0.46489-1.1743-1.6993-1.2265-2.7496-0.074768-1.5112-0.19614-1.6052-0.51092-0.45563-0.61957 2.2609-2.7409 4.0012-4.8806 4.0012-1.6711 0-1.8249-0.20131-1.098-1.4092 1.0683-1.7761 1.0754-2.441 0.02536-1.8635-0.45026 0.24634-0.8172 0.10463-0.8172-0.31915 0-0.42386-0.36838-0.77219-0.8186-0.77219-0.44888 0-0.81723 0.45822-0.81723 1.0225 0 1.3046-4.7776 4.9363-5.7754 4.3879-0.41077-0.22647-0.76495-1.0424-0.76495-1.8185 0-0.77747-0.36841-1.4105-0.84412-1.4105-0.47556 0-0.64774-0.40924-0.35702-0.90857 0.28937-0.50066-0.15387-0.16824-0.99792 0.7496-0.84256 0.91916-1.8136 1.4317-2.1453 1.1364-0.33154-0.29407-1.4015-0.64903-2.4022-0.77219-2.2144-0.27418-5.5185-1.7244-5.5185-2.433 0-0.28348 1.0938-0.91785 2.4276-1.4093 1.3324-0.49135 2.3444-1.2702 2.2484-1.7271-0.098755-0.46362 0.94144-0.86887 2.3246-0.90993 2.861-0.08342 7.0231-1.8119 5.4677-2.2727-0.56024-0.16692-1.0218-0.77487-1.0218-1.3417 0-1.1536 4.0889-1.4476 5.3662-0.38544 1.2364 1.0265 4.4459 1.6993 4.4459 0.93114 0-0.3828-0.93155-0.89934-2.096-1.1589-1.743-0.38939-1.9392-0.67151-1.1234-1.5457 0.80728-0.86487 0.68591-1.0503-0.5618-1.0689-1.8221-0.027802-4.8975-1.9615-4.165-2.6145 0.28079-0.25032 2.1961-0.61191 4.2412-0.81722 4.0916-0.41055 4.0704-0.3986 2.8623-2.4105-0.78476-1.3032-0.9837-1.3231-2.7861-0.27283-1.8207 1.0622-1.9746 1.0251-2.4784-0.38542-0.29651-0.83044-0.88498-1.3218-1.3027-1.0914-0.41785 0.22911-0.76645 0.082138-0.76645-0.34169 0-0.42386-0.73672-0.77219-1.6358-0.77219s-1.6344-0.4662-1.6344-1.0238c0-1.1112 1.7275-1.886 4.165-1.886 1.856 0 2.1058-1.335 0.35712-1.9324-0.67194-0.22913-1.0501-0.65695-0.84402-0.95496 0.20749-0.29797-0.54062-0.96686-1.6599-1.5006-2.7564-1.3112-2.0747-2.5231 1.4312-2.5231h2.8863l-2.0691-2.4092c-1.6146-1.8807-1.8291-2.5867-1.0486-3.2741 0.77902-0.68341 1.5722-0.31125 3.6795 1.7284 2.501 2.4172 2.7607 2.5099 3.6287 1.2728 0.51514-0.73375 1.3041-1.3192 1.7374-1.3192 0.9725 0 3.5553 4.0714 4.1141 6.5018 0.41217 1.7973 7.9392 7.5335 9.0711 6.911 0.32181-0.17749 0.48123-2.1191 0.38245-4.3191-0.097382-2.1999 0.14542-4.0012 0.53635-4.0012 0.39243 0 0.59982-1.2079 0.46011-2.682-0.21167-2.2357-0.62378-2.7787-2.5292-3.2277-1.9759-0.46753-2.2272-0.36292-1.8136 0.79468 0.74527 2.0913-1.2491 2.6224-2.8369 0.75096-0.83838-0.99069-1.6274-1.3629-1.9421-0.90991-0.55609 0.80263-3.8065 0.3788-3.8065-0.4993 0-0.67682 4.0704-4.0648 4.7776-3.9787 0.3006 0.035797 1.1855-0.091385 1.9674-0.27281 2.3077-0.53641 0.80588-1.5589-1.6358-1.1139-4.0987 0.74832-7.7923 0.60794-8.1509-0.31787-0.1919-0.50063 0.18634-0.90991 0.84409-0.90991 0.65631 0 1.6415-0.49535 2.1976-1.0914 0.55606-0.59467 1.338-0.90062 1.7374-0.68211 0.39932 0.21986 0.71701 0.14307 0.71548-0.18143-0.001343-0.32318-1.1065-1.245-2.4529-2.0463-2.4756-1.4701-3.1559-2.5456-1.6104-2.5456 1.489 0 6.8452 2.2039 7.5637 3.1152 0.42621 0.53906 0.50806 0.25827 0.20459-0.70462-0.27243-0.86752-0.14395-1.7681 0.28091-2.0013 0.88913-0.48871 4.1904 4.1906 4.1904 5.9336 0 0.64369 0.24274 0.96555 0.53632 0.7046 0.29211-0.26091 1.0473 0.078171 1.6597 0.77216 0.97244 1.0993 1.0558 0.80264 0.69022-2.2953-0.33734-2.8781-1.1052-4.2833-4.0874-7.3878-2.0253-2.1099-3.7049-4.3072-3.7049-4.8873 0-1.7483 4.1086-0.59865 4.9568 1.3867 1.3507 3.1588 2.8355 2.0635 2.5292-1.8648-0.22302-2.8661 0.067719-3.9482 1.4311-5.2502l1.7121-1.6145h1e-4zm5.5439 25.528c-0.37253 0.019897-1.2618 0.65166-2.2737 1.6596-1.681 1.6754-2.453 3.1867-2.453 4.8422 0 1.3284 0.1553 2.4317 0.3317 2.4317 0.44037 0 1.4947-2.2529 1.8659-3.9774 0.16797-0.77878 0.84406-1.939 1.5074-2.592 0.6647-0.65164 1.2011-1.641 1.2011-2.1814 0-0.1351-0.053558-0.18941-0.17929-0.18278zm1.993 10.684c-1.5554 0.10199-5.3281 2.4185-5.9264 3.8198-1.0656 2.4913-0.46155 2.9562 1.3789 1.045 0.80731-0.83838 1.9196-1.5231 2.4785-1.5231 0.94699 0 3.1798-2.8132 2.58-3.2502-0.11441-0.084793-0.28799-0.10596-0.51099-0.0914zm-22.331 5.9336c-0.19617 0-0.43613 0.031799-0.69019 0.090088-1.3479 0.31387-1.0318 0.74565 2.1214 2.8873 2.0423 1.388 4.4346 2.5801 5.2885 2.637 0.85535 0.056961 1.5327 0.34436 1.5327 0.65956 0 0.31525 0.41498 0.5907 0.8949 0.5907 0.48129 0 0.75641-0.73636 0.61389-1.637-0.2272-1.4158-0.69434-1.6146-3.3478-1.4093-2.3599 0.18277-3.0656-0.026443-3.0656-0.90858 0-0.63176-0.55179-1.1377-1.2265-1.1377-0.67468 0-1.2265-0.4596-1.2265-1.0225 0-0.49133-0.30484-0.75362-0.89481-0.74965zm9.479 10.41l-1.9153 0.841c-1.0543 0.45691-2.8016 0.62909-3.8842 0.38672-1.115-0.24901-1.9674-0.12448-1.9674 0.29535 0 0.40793 0.35284 0.75098 0.76636 0.75098 0.41357 0 1.2788 0.16818 1.9167 0.38675 0.63794 0.21721 2.031-0.29666 3.1178-1.1377l1.9661-1.5231zm-8.968 1.7959c-0.18488 0.025208-0.45871 0.19476-0.84259 0.47816-0.91458 0.67415-1.2265 0.6861-1.2265 0.045059 0-0.47288-0.40225-0.62517-0.9202-0.34041-0.6521 0.35762-0.48129 0.82117 0.56165 1.4993 2.1058 1.3708 2.8115 1.2225 2.8115-0.56819 0-0.80531-0.074768-1.1536-0.38385-1.1139zm-12.314 2.6595c-0.70291 0-1.0713 0.32851-0.79318 0.72847 0.65488 0.94034 2.0436 0.94034 2.0436 0 0-0.39996-0.55045-0.72847-1.2505-0.72847zm19.239 11.639c-0.44879 0-0.81723 1.637-0.81723 3.6369 0 3.6886 0.12277 4.0052 1.098 3.1377 0.87088-0.77483 0.62103-6.7746-0.28082-6.7746zm6.2341 9.707c-0.29352-0.045029-0.5109 0.11389-0.5109 0.43178 0 0.42383 0.36835 0.77214 0.8186 0.77214 1.0472 0 1.0472-0.51518 0-1.0913-0.11295-0.060928-0.20895-0.097992-0.30771-0.11258zm-6.5927 1.5457c-0.046539-0.003952-0.1214 0.058243-0.1778 0.18144-0.2244 0.49271-0.23285 1.4742-0.025421 2.1826 0.20746 0.70731 0.3924 0.31392 0.4079-0.88736 0.01413-0.89931-0.062073-1.4662-0.20468-1.4767zm10.17 0.3867c-0.45023 0-0.81711 0.14174-0.81711 0.31789 0 0.17613 0.36688 0.52582 0.81711 0.77214 0.44891 0.24773 0.81726 0.10603 0.81726-0.31784 0-0.42383-0.36835-0.77219-0.81726-0.77219zm4.0874 1.4543c-0.44882 0-0.81714 0.14177-0.81714 0.31923 0 0.17482 0.36832 0.52451 0.81714 0.77216 0.45032 0.24768 0.81863 0.10458 0.81863-0.31784 0-0.42387-0.36832-0.77354-0.81863-0.77354zm17.017 0.0225c-0.55893 0.049057-1.2534 0.37749-1.7882 0.97745-1.657 1.8583-4.405 2.1059-5.9279 0.52315-1.3464-1.3999-3.2688-1.4185-2.2992-0.022461 0.25836 0.37213-0.091675 0.6821-0.76636 0.6821s-1.4593-0.32718-1.7374-0.72847c-0.66049-0.94965-2.0451-0.95496-2.0451 0 0 0.4106 1.012 1.1006 2.2483 1.5244 1.2378 0.42114 4.3528 0.92982 6.899 1.1351 4.0578 0.32851 4.7408 0.20265 5.5199-1.09 0.48831-0.81189 0.86807-1.8238 0.86807-2.2502 0-0.55366-0.4122-0.8-0.9711-0.75102zm-75.017 38.531c-0.47705 0-0.86938 0.32715-0.86938 0.72711 0 0.93243 0.57861 0.93243 1.2265 0 0.27802-0.39996 0.1185-0.72711-0.35712-0.72711zm68.348 8.7296c-0.49963 0 0.46854 0.65424 2.1467 1.4542 2.9696 1.4159 4.6759 1.8106 4.6759 1.0914 0-0.45163-5.6145-2.5456-6.8227-2.5456zm-70.598 31.074c-0.89905-0.00531-1.7953 0.079468-2.3499 0.27283-1.1165 0.38944-0.56738 0.55493 1.8912 0.5907 1.911 0.027802 3.4749-0.074158 3.4749-0.22781 0-0.38538-1.513-0.62781-3.0162-0.63571zm-18.294 3.9323c-0.28365-0.01059-0.6239 0.031799-0.91882 0.13641-0.65212 0.23181-0.44035 0.39606 0.5109 0.43179 0.86244 0.031769 1.3451-0.14438 1.0727-0.38678-0.13548-0.12048-0.37972-0.17087-0.66476-0.18143zm-0.2032 18.117c-0.036789-0.009308-0.097458 0-0.15388 0-0.44879 0-1.3691 0.31653-2.0437 0.70456-0.67468 0.38809-0.85815 0.70462-0.40932 0.70462 0.45027 0 1.3705-0.31653 2.0451-0.70462 0.58992-0.33905 0.81857-0.63837 0.56178-0.70456zm142.42 29.392c-0.38672-0.051697-0.4968 0.10065-0.28094 0.40924 0.2739 0.39603 0.82858 0.72714 1.2519 0.72714 1.1758 0 0.93021-0.53906-0.4855-1.0225-0.18201-0.062225-0.35706-0.09668-0.48547-0.11389zm-13.211 6.2514l-1.8645 1.7734-1.8404 1.7721-1.4044-1.9085c-1.2787-1.7364-1.4565-1.7708-2.1974-0.59076-0.60974 0.96689-0.98239 1.0464-1.4566 0.36292-0.45023-0.64764-0.78195-0.46616-1.1757 0.63708-0.55884 1.5655-2.0944 2.1853-2.0944 0.84103 0-0.39999-1.012-0.7298-2.2484-0.72846h-2.2484l2.4516 1.1602c1.5822 0.7417 3.6978 1.0119 5.9278 0.79599 1.904-0.18539 3.259-0.031799 3.0162 0.31784-0.64499 0.92853 0.57443 0.75894 3.091-0.40921 1.2844-0.59604 2.2992-0.72974 2.4529-0.31787 0.14545 0.38672 0.93442 0.47815 1.7375 0.20395 1.3564-0.46222 1.321-0.61581-0.35715-2.2052l-1.7896-1.7046zm-19.009 0.796c-0.17218-0.001312-0.33872 0.001312-0.4855 0.044983-0.61255 0.18149-0.23712 0.51523 0.86801 0.77356 1.3606 0.31519 1.6796 0.22116 1.0726-0.31787-0.35568-0.3179-0.93994-0.49802-1.4551-0.50067zm8.3032 29.983c-0.29352-0.043732-0.5109 0.11389-0.5109 0.43176 0 0.42377 0.36838 0.77347 0.8172 0.77347 1.0487 0 1.0487-0.51523 0-1.0913-0.11148-0.062256-0.20883-0.099365-0.3063-0.11389z" fill="#639379"/>
 <path d="m145.76 36.67l-0.1247 2.5156c-0.055328 1.384-0.16776 5.5578-0.25088 9.2877l-0.1263 6.7722-3.6965-3.9343c-4.2743-4.5792-4.8436-4.7621-4.8246-1.6124 0.008698 1.277 1.7512 4.276 3.8538 6.6756 3.3676 3.8428 3.84 5.0538 4.0409 10.158 0.15224 3.8538-0.14197 5.575-0.84625 5.1277-0.58145-0.37032-1.0332-1.3429-1.0332-2.1608 0-0.81789-0.45166-1.4834-1.002-1.4834-0.55196 0-1.0019-1.798-1.0019-3.999 0-4.5802-2.5248-7.7811-4.1048-5.2242-0.50359 0.81492-0.71124 2.0283-0.47063 2.7089 0.5347 1.5034-2.35 0.52348-4.2918-1.4511-0.72847-0.74126-1.9018-1.3222-2.6303-1.3222-2.7118 0-2.2688 2.9111 1.0331 6.8044 3.9265 4.6309 4.1393 5.5556 1.5349 6.2564-1.2787 0.34442-1.7184 1.1454-1.3774 2.483 0.5641 2.2206 3.2534 2.6165 5.0739 0.74182 1.3654-1.4049 1.3999-1.3311 1.63 2.5477 0.19038 3.2372 0.017365 3.3098-3.416 1.2899-3.3606-1.9774-4.0096-1.9278-4.0096 0.41942 0 1.0939 1.4657 3.1675 3.2585 4.6115 2.4452 1.9697 2.7169 2.4913 1.1283 2.0638-1.3844-0.37202-2.3293-0.001122-2.7256 1.0643-0.86348 2.3152-1.5626 2.1236-8.2406-2.3542-3.2759-2.1976-6.4531-3.8145-7.0484-3.5796-2.087 0.82319-0.7614 4.7615 2.1614 6.417l2.9454 1.646-2.6944 0.3213c-1.4692 0.18037-2.9073 0.9714-3.1946 1.7418-0.56244 1.5088 1.9434 2.9875 3.4455 2.0311 0.50186-0.31756 0.93965-0.084564 0.93965 0.51671s0.78914 1.1161 1.7548 1.1612c1.2736 0.058228 1.3636 0.22922 0.34433 0.64447-1.0626 0.43406-0.85313 1.0184 0.90854 2.3863l2.35 1.8057-4.1983 0.7422c-4.3193 0.75154-5.3022 2.4107-2.7255 4.611 0.9708 0.8305 1.9953 0.91319 3.1322 0.25929 1.8914-1.0898 5.451-0.481 5.451 0.93385 0 0.50166 0.90337 0.93573 2.0056 0.93573 1.1024 0 2.004-0.46411 2.004-1.0316 0-0.56746 1.0157-1.0184 2.2565-0.99962l2.2548 0.032-2.4746 2.0969c-1.9226 1.646-2.1614 2.2886-1.0954 2.9669 1.5038 0.95639 4.103 0.25743 5.387-1.4524 0.46555-0.61818 0.58664 0.15782 0.25093 1.7418-0.50008 2.3638-0.27512 2.8391 1.4104 2.8391 1.1127 0 2.0558-0.58061 2.0992-1.2908 0.053619-0.88124 0.24567-0.82486 0.62642 0.16161 0.40491 1.056 0.91194 0.76848 1.8482-1.0315l1.2841-2.484 1.2546 2.8372c0.68884 1.5577 0.93282 3.166 0.53131 3.5813-0.40321 0.41338-3.9958 0.92065-7.988 1.1274-6.6816 0.34761-7.6489 0.13907-12.062-2.7414-4.3938-2.8673-7.6125-3.3464-7.6125-1.1274 0 0.48854 1.2407 1.6272 2.7567 2.514l2.7566 1.614-3.5094-0.6783c-3.4697-0.6539-9.3085-3.7504-11.873-6.3208-0.72856-0.73094-2.1943-1.3228-3.2568-1.3228-2.0437 0-2.5733 1.9955-0.97256 3.6452 0.60232 0.6182-0.93961 1.118-4.1982 1.3228-2.8364 0.1766-5.5394 0.55618-5.9824 0.83801-3.2966 2.0969 4.8264 5.9056 10.714 5.03l4.0407-0.5806-2.819 1.6459c-1.7063 0.9959-2.71 2.3318-2.5058 3.3859 0.48802 2.5234 4.8194 1.6779 7.5813-1.4844 1.2858-1.4712 3.0232-2.4332 4.0096-2.1927 1.3844 0.34009 1.2044 0.68205-0.90858 1.5802-3.4142 1.4524-4.4491 3.1491-2.3812 3.9665 0.89462 0.35323 1.3999 1.2363 1.1283 1.9673-0.27354 0.73093 0.17821 1.5896 0.97082 1.9034 0.79246 0.3119 1.4414 0.16159 1.4414-0.32318 0-0.84366 3.2396-2.2886 5.671-2.5478 0.63856-0.067657 2.1043-1.0221 3.2568-2.0951 1.1524-1.0747 2.099-1.6065 2.099-1.1931 0 1.071-2.1908 3.1773-4.7935 4.6109-1.2287 0.67645-2.2237 1.6911-2.2237 2.2566 0 1.9466 3.0872 2.2491 4.9822 0.48477 1.8084-1.6854 1.8689-1.6704 1.3463 0.38705-0.76483 3.0101 1.2875 2.7113 3.3208-0.48477 1.272-1.9973 1.895-2.3111 2.5369-1.289 0.69742 1.1105 0.98292 1.1011 1.6925-0.031937 0.47584-0.75911 1.7149-1.2646 2.7567-1.1293 4.0441 0.52991 9.362-3.1923 9.5247-6.6759 0.084808-1.879 0.18516-1.8226 0.81337 0.41901 0.59698 2.1308 0.10384 3.1641-2.8502 5.9018-1.9693 1.8244-6.363 4.8232-9.7756 6.6759l-6.2021 3.3539-4.8247-2.484c-2.6529-1.3641-5.3889-2.5742-6.0776-2.7076-1.7893-0.3514-1.547 1.6422 0.50194 4.1281 1.5782 1.9128 1.5696 1.9654 0.031143 0.74033-0.94139-0.74785-2.0922-1.1086-2.5698-0.80611-0.47592 0.30438-2.1251-0.11273-3.6653-0.9357-3.6929-1.971-4.8437-1.8733-4.167 0.3232 0.44983 1.4581-0.020844 1.7831-2.4436 1.7098-1.6492-0.050766-3.2343-0.36452-3.5388-0.67831-1.2218-1.2552-4.4492 0.59372-4.4492 2.5479 0 1.5877 0.48798 1.9503 2.0991 1.5163 2.0125-0.54115 2.0247-0.49228 0.34436 1.4186-1.8153 2.065-1.5177 2.3487 2.2878 2.0311 1.7477-0.14465 2.1112 0.20293 1.5972 1.5821-0.54161 1.4524-0.19551 1.6967 1.8793 1.2889 2.0749-0.40773 2.4314-0.16534 2.0368 1.3867-0.53648 2.1082 0.098648 2.3355 2.5992 0.96765 2.4591-1.3453 5.5618 2.9274 3.5406 4.8703-1.13 1.086-1.4727 1.0428-1.9104-0.12965-0.29942-0.80417-2.0766-1.4731-4.0425-1.5482-1.9261-0.075165-3.2742 0.27617-2.9749 0.77409 0.29764 0.49792-0.33736 0.65198-1.4414 0.35515-2.5318-0.6821-2.6097 0.88495-0.12462 2.484 1.3152 0.84367 1.7218 1.9804 1.3775 3.8368-0.60576 3.2638-0.75974 3.292-4.4492 0.095856-1.637-1.4186-3.6323-2.5798-4.4163-2.5798-1.6803 0-1.7668 0.50732-0.47063 2.9988 1.0521 2.0236 0.39281 2.0725-7.2042 0.58058-2.4763-0.48473-3.7604-0.34947-3.7604 0.3871 0 1.3359 5.2054 4.2896 7.5813 4.2896 1.3706 0 1.4502 0.25929 0.43962 1.5163-0.99676 1.2345-0.96222 1.6629 0.218 2.127 0.8082 0.31943 1.8863 0.48286 2.3812 0.38705 2.0939-0.40208 3.3988 0.18227 3.1652 1.3867-0.15399 0.79292 0.81337 1.2608 2.5058 1.227 2.1216-0.04509 2.7619 0.43025 2.7878 2.0631 0.031143 2.0368 0.11078 2.0161 2.0058-0.32318 1.5644-1.9334 1.9727-2.0762 1.9727-0.70837 0 0.94698 0.44995 1.4487 1.002 1.0954 0.55366-0.35136 1.4328 0.5656 1.9745 2.0331 0.54163 1.4675 1.6717 2.9255 2.5058 3.2562 0.83578 0.33072 1.5349 1.242 1.5349 2.033 0 0.78917 0.72511 1.4506 1.6302 1.4506 0.90341 0 2.2133 0.78728 2.9124 1.7737 1.201 1.6892 1.4225 1.6742 3.6342-0.25742l2.35-2.033-1.7859 2.1608c-1.0781 1.319-4.4214 2.8203-8.6456 3.8706-8.8291 2.1928-10.961 2.1251-14.568-0.32318-3.3416-2.266-4.9717-1.847-4.0736 1.0654 0.50359 1.6328 0.12112 1.9973-2.2548 1.9973-1.5817 0-3.3312-0.46225-3.885-1.0316-0.67323-0.69331-1.6475-0.55615-2.9454 0.41902-1.8603 1.4017-1.8154 1.5314 1.284 3.3539 2.338 1.3754 3.0786 2.4201 2.6633 3.7748-0.36859 1.2063-0.081299 1.7963 0.78397 1.676 2.902-0.40778 4.0286 0.10332 3.4766 1.5802-0.96213 2.5798 2.6979 3.8105 5.4823 1.8376 1.8274-1.2927 2.0973-1.3547 1.1906-0.19165-1.6924 2.1702-0.063995 4.4381 2.5698 3.5775 3.795-1.2401 4.8195 0.74406 1.0954 2.1289-4.7814 1.7794-9.5523 1.7436-11.34-0.095856-1.9779-2.0368-5.0479-2.0612-4.2916-0.031937 0.46719 1.2551-0.23013 1.4224-3.9162 0.90192-5.394-0.76099-6.0689 0.9545-1.0972 2.8071 2.4124 0.89627 3.2655 1.7681 2.9454 3.0308-0.53478 2.1063 2.6304 3.2788 5.0756 1.8696 1.3291-0.76659 1.6595-0.46596 1.6595 1.5802 0 2.0932 0.36693 2.4502 2.1614 1.9672 1.7739-0.47726 2.0317-0.27243 1.4727 1.227-0.54691 1.4694-0.26828 1.7549 1.3481 1.3209 1.1109-0.29877 2.035-0.12776 2.035 0.3871 0 1.8075 2.1216 0.90187 4.7936-2.0312 3.2188-3.5343 5.1258-4.316 7.488-3.0646 2.7463 1.4543 2.0593 2.6286-1.2529 2.1288-3.4523-0.52235-3.9629 1.0504-1.4727 4.7087 1.4554 2.1383 1.4485 2.2885-0.40842 2.2885-1.0936 0-2.6805 0.69714-3.5077 1.5483-0.82724 0.85117-2.1735 1.5483-3.0076 1.5483-0.83421 0-1.779 0.43582-2.0991 0.96762-0.31844 0.53171-2.3363 0.93387-4.4803 0.90375-2.1424-0.031921-4.4803 0.31564-5.2002 0.77417-0.71991 0.45654-2.7706 0.73465-4.5426 0.61063-2.6684-0.18411-3.2724 0.18411-3.539 2.1289-0.2335 1.691-1.0174 2.3712-2.8207 2.452-1.3774 0.060089-2.9574 0.24048-3.5077 0.38705-0.55197 0.14465-1.7928 0.16538-2.7584 0.063873-0.96391-0.1015-1.753 0.22925-1.753 0.7102 0 1.366 5.548 4.4175 8.0503 4.4175 2.1926 0 2.2341 0.058258 0.4708 2.0631-1.7703 2.0142-1.7531 2.065 0.81507 2.065 1.9642 0 2.4815 0.38522 2.035 1.5802-0.48629 1.304-0.063988 1.475 2.2878 0.90195 1.5852-0.38525 3.108-0.6821 3.3832-0.67645 3.127 0.061951 3.8538 0.41714 3.3831 1.676-1.0469 2.809 1.5505 2.7301 3.0388-0.095856 1.4172-2.6906 1.4969-2.7263 1.5349-0.54862 0.022522 1.2777 0.40146 2.3562 0.81511 2.4201 6.1261 0.92072 7.1297 0.61441 8.3635-2.452l1.2546-3.0966 0.8757 2.452 0.8773 2.4821 1.9434-2.5798c1.9225-2.576 1.919-2.5779 1.9415-0.25738 0.031143 3.1303 1.8171 2.9537 2.601-0.25742 0.34602-1.4205 1.0729-2.5798 1.5972-2.5798 0.52431 0 0.62813 0.49979 0.25096 1.1274-0.47945 0.79858 0.29587 0.93387 2.5681 0.41904 2.4123-0.54489 3.1651-0.41904 2.8518 0.54864-0.616 1.9034-6.8961 5.1277-9.9936 5.1277-1.4657 0-2.8692 0.5806-3.134 1.2909-0.2942 0.79098-2.2549 1.242-5.105 1.1931-2.5526-0.046936-4.6379 0.27805-4.6379 0.70834 0 1.9861 3.4802 4.1356 6.2351 3.8388 1.637-0.17658 3.0509 0.086426 3.1322 0.61252 0.26656 1.7192-5.6102 2.6851-19.892 3.2582-16.096 0.64258-22.557 1.3678-22.557 2.4821 0 0.42838-1.1284 0.56177-2.5058 0.28931-1.4242-0.27811-2.5058-0.02063-2.5058 0.6145 0 1.4449 3.2742 3.2561 5.9201 3.2561 1.1387 0 2.0991 0.46414 2.0991 1.0316 0 0.56747-0.4915 1.0316-1.0643 1.0316-0.57458 0-2.042 0.96014-3.2585 2.1608l-2.1926 2.1946 3.2569-0.4528c2.1562-0.30252 3.2585-0.035706 3.2585 0.80606 0 0.76474 0.80124 1.0654 2.0056 0.74222 1.1196-0.30252 2.004-0.032013 2.004 0.61252 0 1.6667 2.5508 1.4242 4.0113-0.38705 0.68528-0.8512 1.6855-1.5483 2.2548-1.5483 0.56928 0 0.31665 0.83243-0.59529 1.8714-0.91193 1.0372-1.6596 2.1983-1.6596 2.5798 0 1.0936 3.8227 0.82303 4.5098-0.32318 0.99328-1.6535 2.3205-1.1969 3.0076 1.0316 0.80641 2.6118 1.9503 2.5948 5.5775-0.063904l2.9124-2.1289-0.6264 3.1623c-0.75456 3.8839 1.0678 4.1976 5.1379 0.90192 2.6754-2.1664 2.7498-2.1646 1.6924-0.12961-1.2459 2.3956-0.64714 3.5324 1.4415 2.7095 0.77875-0.30817 2.0922 0.009369 2.9125 0.70834 1.0366 0.88687 1.5038 0.93576 1.5038 0.12964 0-0.63696 0.67662-1.1611 1.5039-1.1611 0.82721 0 1.5038 0.63876 1.5038 1.4505 0 1.0034 0.88776 1.3792 2.7566 1.1612 10.437-1.2157-3.0612 5.0319-15.194 7.031-7.9326 1.3078-8.727 1.257-11.34-0.51483-1.5453-1.0484-3.352-1.8996-4.0426-1.9034-2.0732-0.011261-1.4103 2.0537 1.0037 3.1285 1.6562 0.73654 1.0556 0.81363-2.2566 0.28937-2.4815-0.39273-5.638-0.65204-7.0172-0.5806-1.3793 0.071411-4.7433-0.5412-7.4567-1.3529-2.7118-0.81357-5.0826-1.3472-5.2625-1.1612-1.0452 1.0767 5.3715 5.3306 8.9606 5.9338l4.2606 0.7084-3.7605 0.1297c-2.6165 0.090179-3.7587 0.59936-3.7587 1.676 0 0.85114 0.78911 1.6234 1.7548 1.7098 0.96384 0.086487 2.2046 0.25552 2.7566 0.38705 0.55031 0.13159 1.6492 0.28937 2.4436 0.35516 1.0624 0.086456 0.92925 0.5036-0.50194 1.5803-2.4763 1.8639-1.3014 3.2036 1.4727 1.6759 1.7254-0.95068 2.0992-0.853 2.0992 0.54868 0 1.3228 0.71642 1.5934 3.2585 1.2251 1.791-0.25928 4.1601-0.80798 5.2625-1.2251 1.9762-0.74591 1.9502-0.73837 0.031067 0.86996-1.9537 1.6385-1.5349 2.018 1.7237 1.6779 0.99854-0.10519 1.7547 0.5336 1.7547 1.4506 0 2.2078 0.81159 2.0255 3.1945-0.70834l2.0368-2.3224-1.6284 2.8053c-0.88774 1.5407-1.599 3.2713-1.599 3.8706 0 1.5952 4.918 0.41718 7.2682-1.7418 1.9693-1.8094 1.9848-1.7756 1.2217 0.74219-1.0591 3.4968-2.2894 4.237-11.529 7.0931-7.6731 2.375-8.1369 2.405-12.28 0.77411-4.5166-1.7756-10.747-2.281-10.747-0.86996 0 0.45291 0.52443 1.4111 1.1906 2.097 0.81511 0.83801-0.52596 0.70645-4.103-0.38708-2.9281-0.89435-6.0066-1.3697-6.8615-1.0315-1.3099 0.51669-1.1923 1.0296 0.75105 3.1584l2.2878 2.516-3.3832-0.9997c-4.361-1.2871-9.6598-1.2852-10.433 0-0.79606 1.3285 5.908 4.1544 9.8692 4.16h3.1634l-2.9436 2.4182c-2.9074 2.3957-2.8796 5.5373 0.031021 4.3874 0.96744-0.38327 1.4087 0.24048 1.4087 1.9993 0 1.8282 0.52434 2.5478 1.9122 2.5478 1.0626 0 2.6321 0.7084 3.4766 1.5783 1.2754 1.3153 1.8742 1.3491 3.5718 0.25931 1.1248-0.72345 2.0679-1.6647 2.0679-2.0969 0-0.4303 0.79089 0.039459 1.7859 1.0315 1.919 1.9166 2.466 4.3874 0.9708 4.3874-0.49146 0-0.56593 0.49979-0.18864 1.1293 0.47763 0.79291-0.2648 0.94321-2.4434 0.45093-1.9988-0.45288-3.1322-0.32507-3.1322 0.38705 0 0.63132-1.9503 1.1274-4.5114 1.1274-4.6984 0-5.5843 0.89624-3.0077 3.0964 1.0037 0.85684 3.1254 1.0861 6.2662 0.67648l4.7606-0.6106-3.7275 2.0311c-2.5888 1.4111-3.5475 2.5309-3.1322 3.6432 0.37207 1.0015 1.2078 1.336 2.2236 0.90381 0.89471-0.38141 2.3068-0.79855 3.134-0.9357 0.82713-0.13718 0.93961-0.050751 0.24919 0.19351-2.5386 0.89816-1.2269 2.5554 1.5038 1.9034 1.9728-0.47354 2.3396-0.36639 1.2857 0.35321-2.6528 1.8132-0.29768 2.3375 2.8814 0.64444 1.7062-0.90564 3.1011-1.21 3.1011-0.67636 0 0.53549-0.56414 1.1988-1.2529 1.4506-0.68876 0.25366-0.90337 0.84546-0.46898 1.3228 0.43431 0.47717 2.0732 0.36072 3.6652-0.25748 2.3691-0.92068 2.8207-0.85681 2.3811 0.32324-0.38755 1.0371-0.029358 1.2307 1.3152 0.74026 1.5643-0.56937 1.6648-0.43402 0.5641 0.77417-1.0261 1.1273-4.4768 1.396-15.789 1.2251-8.753-0.13156-14.474 0.17471-14.474 0.77408 0 0.54678 0.69916 0.9997 1.5661 0.9997 0.86705 0 2.203 0.65573 2.9766 1.4524 1.2062 1.2419 1.1819 1.5351-0.1575 2.0631-0.85661 0.34006-2.9834 0.60507-4.7294 0.61252-3.6843 0.018799-6.2109 1.3641-5.3265 2.8391 1.0936 1.8207 6.0689 2.1514 10.182 0.67645 5.4823-1.9673 5.78-1.8545 2.9454 1.0653-3.5355 3.6377-3.2793 5.8323 0.53122 4.7068 1.6371-0.48291 3.442-1.1856 4.0114-1.5482 0.56932-0.36072 1.0746 0.19916 1.1576 1.2269 0.084816 1.0259 0.22161 2.3938 0.28216 3.0627 0.060585 0.66894 0.41526 1.5558 0.78397 1.9353 0.79085 0.81363 6.8285-2.6661 6.8285-3.9345 0-0.47916 0.41016-0.59561 0.93977-0.25738 0.61773 0.39264 0.61773 1.552 0 3.2243-0.52961 1.4356-0.93977 3.0739-0.93977 3.6433 0 1.366 4.7382-2.1664 9.4936-7.0611 3.5458-3.6527 4.0528-3.0289 0.75109 0.93567-0.80994 0.9714-1.1716 2.5573-0.81507 3.5136 0.57797 1.5483 0.90846 1.4581 3.1962-0.74026l2.6009-2.4521-0.3461 2.5798c-0.31665 2.3694-1.0002 2.6813-8.3636 3.9345-5.1759 0.88123-8.5642 1.0166-9.5558 0.38705-2.5128-1.597-7.9881-2.5459-7.9881-1.3866 0 0.57309 0.78923 1.2627 1.7548 1.5163 0.96392 0.25366-0.50189 0.24805-3.2585 0-4.0304-0.3645-4.7676-0.20856-3.7587 0.83804 1.9157 1.9917 1.4865 2.732-1.2529 2.1928-3.2413-0.63696-7.7891 0.55429-7.019 1.8376 0.33227 0.55243 1.6284 0.99963 2.883 0.99963 4.2848 0 3.6826 1.4205-1.535 3.5813-8.8948 3.679-6.9532 6.4166 2.1926 3.0947 4.6291-1.6817 6.441-1.3886 3.0388 0.48477-1.1491 0.63321-2.068 1.8808-2.068 2.7733 0 1.2439 0.60738 1.4656 2.6633 0.93384 2.3656-0.61063 2.5439-0.50919 1.3792 0.93576-2.7013 3.3502 0.16267 3.3596 4.6362 0 2.0887-1.5671 2.1718-1.552 1.5972 0.74219-0.53818 2.1514-0.43088 2.2566 1.0972 0.96765 1.5072-1.2739 1.6094-1.2138 1.0019 0.51675-0.59876 1.708-0.36163 1.6516 1.817-0.38715 2.5543-2.3919 4.1239-2.1889 3.1634 0.38715-0.76479 2.0536 1.6388 1.7812 5.4512-0.6145 1.817-1.1386 3.2585-1.5313 3.2585-0.90182 0 0.69898 1.0504 0.8812 2.7567 0.48285 1.8655-0.43402 2.2704-0.34195 1.2529 0.29126-0.82546 0.51294-3.9837 1.4505-7.0172 2.0951-6.5276 1.3866-8.5558 2.5178-7.5503 4.1938 0.69224 1.1499 2.0403 1.0258 8.0521-0.64636 1.535-0.42658 1.2426 0.22919-1.2528 2.7094-1.7929 1.7812-3.2586 3.4536-3.2586 3.741 0 1.024 5.574-0.24802 8.7719-1.9992 3.5146-1.924 4.0546-1.3359 1.7236 1.8376-2.0368 2.7715-1.8413 3.9928 0.5313 3.354 1.3031-0.34949 2.0056-0.007538 2.0056 0.93567 0 1.9298 0.91712 1.8245 3.2586-0.35507 1.8498-1.723 1.933-1.7136 1.5972 0.25738-0.53648 3.1492 5.0255 2.2003 7.9881-1.3529l2.3188-2.7752-0.6575 3.3539c-0.87053 4.44 1.6457 4.5565 5.5445 0.25928 1.5454-1.7042 2.9401-3.0965 3.1339-3.0965 0.19212 0 0.41708 1.2007 0.50017 2.6776 0.22839 4.0567 1.8619 5.1502 3.9473 2.6437 1.6475-1.9804 1.8828-2.018 3.101-0.38705 1.208 1.614 1.3429 1.5896 1.9123-0.48291 0.36681-1.3416 1.1611-2.0311 1.9727-1.7099 0.86526 0.34201 1.6077-0.4678 2.0368-2.2246 0.46379-1.9053 0.93108-2.3863 1.4727-1.4844 0.43265 0.72153 1.7254 1.4637 2.8814 1.6441 1.6335 0.25738 2.5923-0.68396 4.2916-4.2878 2.1978-4.6542 4.5149-6.4486 3.3209-2.5798-0.7701 2.499-0.19046 2.5647 3.0388 0.38705 1.3601-0.91696 2.5057-2.6588 2.5697-3.8706 0.093475-1.7625 0.22678-1.8414 0.59529-0.38705 0.76143 3.0063 2.3172 0.91876 2.3501-3.1605 0.024185-3.0871 0.20416-3.4629 1.0331-1.9992 0.56245 0.99396 1.9607 1.8057 3.1011 1.8057 1.9762 0 2.0524 0.37766 1.4104 7.9987-0.44823 5.325-1.5021 9.6691-3.1323 12.995-0.95697 1.9485-1.7582 3.6846-2.1632 4.6448h24.938c1.1058-0.91126 0.60739-2.5102-0.53299-5.3212-1.7773-4.3798-2.4626-13.324-1.0642-13.803 0.54501-0.18784 1.7755 1.0334 2.7566 2.7414 1.8257 3.1849 4.0737 4.3573 3.0389 1.5802-1.1838-3.1773 0.67998-1.4374 2.035 1.9034 1.0816 2.6644 1.9486 3.4611 3.7604 3.322 1.2979-0.1015 3.0111 0.30246 3.7898 0.90186 1.0158 0.7836 1.5298 0.74976 1.8171-0.12772 0.26642-0.81546 1.0608-0.55429 2.35 0.77225 2.5802 2.6568 3.8642 2.529 3.2586-0.32135-0.289-1.3585-0.14706-1.8733 0.34434-1.225 1.156 1.5238 4.354 2.6342 4.354 1.5144 0-1.041 5.5341-0.67267 8.4276 0.54868 1.5229 0.64261 1.805 0.4415 1.3152-0.87-0.34084-0.91318-0.09343-1.8488 0.56419-2.0969 0.91368-0.34573 0.92577-0.79483-0.031189-1.8395-2.2756-2.4821-1.3325-2.8034 2.4123-0.83804 4.1394 2.174 5.2954 1.8546 3.2897-0.86993-1.0729-1.4581-1.0868-1.5764-0.031143-0.61255 0.72864 0.66519 1.9348 0.97705 2.6944 0.67642 0.75975-0.29877 1.4087-0.1315 1.4087 0.38708 0 0.52045 0.6126 1.8226 1.3792 2.903 1.2009 1.6929 1.6422 1.7681 3.0699 0.54678 1.4398-1.2289 1.8447-1.0766 3.2585 1.0015l1.6284 2.3863 0.9084-2.4839c0.83758-2.3073 0.99167-2.3524 2.1927-0.67642 1.5868 2.2134 2.2964 2.2472 4.2605 0.22546 1.2217-1.257 1.291-1.8846 0.31326-3.0965-0.67325-0.83615-0.92587-1.5144-0.56424-1.5144 0.36346 0 0.14014-1.0447-0.50012-2.3224-0.97424-1.9428-0.60733-1.8301 2.2238 0.80603 6.2385 5.8079 6.6504 6.0202 8.4276 4.192 0.88428-0.91132 1.2546-2.2134 0.84625-2.9349-0.41885-0.73654 0.095154-0.61441 1.1906 0.29123 5.2989 4.3798 10.665 5.2423 7.0483 1.1274-1.6336-1.8564-1.5782-2.0011 1.0332-2.6757l2.7272-0.7102-2.9471-2.4501c-3.8503-3.2412-1.791-3.2488 3.7293 0 2.4002 1.411 4.951 2.5723 5.6397 2.5798 2.023 0.02066 1.4381-1.6253-1.0037-2.8372-2.0299-1.009-1.8759-1.1311 1.786-1.1931 2.2393-0.039429 4.9457-0.7478 6.0153-1.5821 1.8516-1.4411 1.8273-1.5144-1.0332-1.5464-4.2952-0.048889-19.565-2.9106-22.744-4.2577-3.8972-1.6498-4.6343-4.1732-0.7839-2.6756 3.3797 1.3115 5.0877 0.22736 2.6009-1.646-1.445-1.086-0.97946-1.2157 2.8502-0.90182 4.8886 0.40018 5.9304-0.87 2.286-2.7734-1.9503-1.0222-1.6198-1.1499 2.6321-0.9357 5.7384 0.28934 7.3564-1.6516 2.4124-2.9011l-3.2897-0.8399 3.2585-0.3871c3.8159-0.46786 4.1516-1.5295 1.002-3.1924-1.8412-0.97327-1.0626-1.1048 4.2605-0.64633 6.0014 0.51858 6.3355 0.43588 4.5426-1.0315-1.0695-0.87561-2.7308-1.5802-3.6964-1.5802-0.96558 0-2.042-0.51105-2.4123-1.1274-0.42053-0.7027 0.20761-1.0635 1.6925-0.93576 4.1878 0.35892 6.8926 0.018829 6.8926-0.90372 0-0.4942-3.179-1.2194-7.05-1.6122-3.8695-0.39264-6.8217-1.0898-6.5465-1.5464 0.27508-0.46036 3.1634-1.4487 6.4218-2.1928 6.1451-1.4036 10.035-3.5062 8.8032-4.7744-0.62994-0.64822-6.2091 0.28751-13.659 2.3224-2.2894 0.62378-2.2324 0.4303 0.90851-2.3543 5.1656-4.5828 2.2497-5.0544-5.2002-0.83807-7.4827 4.2333-11.766 4.579-20.05 1.6441-9.4019-3.3295-24.649-11.298-25.785-13.48-1.4052-2.7038-0.60571-2.623 1.9433 0.19354 1.1249 1.242 2.068 1.879 2.068 1.4186 0-0.46036 0.67662-0.25552 1.5038 0.45093 1.2407 1.0616 1.5038 0.9639 1.5038-0.5787 0-1.5558 0.51225-1.3641 3.1322 1.1594l3.1322 3.0326-0.5952-3.322c-0.60051-3.275-0.55901-3.3089 2.1302-2.1289 1.4986 0.65579 3.4022 1.7305 4.2293 2.3862 3.8885 3.0797 4.3402 3.012 3.6342-0.61252-0.53134-2.7376-0.42743-3.2149 0.53302-2.2247 1.7443 1.7944 5.8577 1.5915 5.8577-0.2912 0-1.9222 1.6198-2.0199 2.6961-0.15976 0.43958 0.76105 2.0541 2.1853 3.57 3.1924 2.2739 1.5088 2.7568 1.5633 2.7568 0.32126 0-0.82861-0.90173-2.3261-2.004-3.3539-1.1041-1.026-2.0057-2.36-2.0057-2.9349 0-0.57309 0.25269-0.73657 0.59537-0.38705 0.34088 0.35321 1.3325-0.080811 2.1926-0.96576 1.085-1.118 2.7151-1.4581 5.3265-1.0974 2.5975 0.35892 3.9352 0.084564 4.2916-0.86996 0.39282-1.0559 1.3049-1.1631 3.8227-0.4209 8.8412 2.6117 10.468-0.36453 1.9417-3.5456-5.7644-2.1533-6.4929-3.2393-1.0971-1.646 6.8597 2.0255 15.782 0.49234 11.999-2.0631-0.82718-0.55994-3.5338-1.0861-6.0152-1.1612-3.8314-0.11649-4.0806-0.22177-1.5973-0.77414 1.6076-0.35889 3.1253-1.3002 3.3832-2.0969 0.39105-1.2082-1.1924-1.3453-9.7116-0.74033-10.033 0.7103-10.193 0.7103-8.9606-1.3228 1.8361-3.027 0.57452-3.5512-4.4162-1.8057-2.6996 0.94324-6.1624 1.3397-8.8672 0.9996-5.7955-0.72906-24.97-7.3429-27.223-9.3854-2.3551-2.1326-2.2237-3.6132 0.24927-2.8052 1.1248 0.36826 2.0056 0.18033 2.0056-0.41907 0-1.1198 1.5021-0.79663 6.5171 1.4506 1.6527 0.74222 5.2851 1.3716 8.0833 1.3866 2.7965 0.016968 5.503 0.12595 6.0135 0.22739 2.3466 0.46036 2.5941-0.24426 0.84631-2.3881-1.2581-1.5407-0.86185-1.3661 1.1594 0.51663 3.4662 3.23 4.4474 3.4986 4.4474 1.257 0-1.3622 0.32361-1.3528 2.5698 0.16162 1.5124 1.0203 2.8692 1.3416 3.2585 0.77411 0.36514-0.5336 2.0161-1.5727 3.6652-2.3224 2.8762-1.304 2.9229-1.4055 1.0643-2.8053-2.2687-1.708-1.6925-1.8488 1.8793-0.4509 1.9417 0.75906 2.601 0.68768 2.601-0.32321 0-0.81543 2.5438-1.8864 6.5154-2.7414 3.5855-0.76849 6.5171-1.8226 6.5171-2.3205 0-0.49979 0.42395-0.60693 0.9708-0.25928 0.54688 0.34756 1.7963 0.16718 2.7566-0.38705 1.5281-0.8794 1.3914-1.1143-1.033-1.74-2.0904-0.54111-2.6269-1.1744-2.1925-2.5798 0.42569-1.381-0.022583-1.9372-1.7236-2.1928-1.6233-0.24802-0.47073-0.9714 3.9473-2.4201 6.846-2.2435 8.5366-4.2747 2.537-3.0627-5.5394 1.118-19.297 1.3716-19.297 0.35516 0-0.4848 0.44995-0.87186 1.002-0.87186 0.552 0 1.0019-0.4697 1.0019-1.0315 0-0.56369-2.1424-0.99026-4.7606-0.93573-6.5777 0.13718-17.094-2.1251-17.733-3.8368-0.35989-0.9639 0.28903-1.4205 1.9729-1.4205 1.3618 0 2.4763-0.4491 2.4763-0.9996 0-0.54864 0.67664-0.746 1.5039-0.41907 0.82712 0.32696 1.5038 0.046997 1.5038-0.61252 0-0.79102 0.75613-0.64072 2.2237 0.4209 1.2251 0.88312 3.3692 1.5971 4.7623 1.5784l2.5369-0.032-2.3171-1.9992-2.2878-1.9673 4.7935-0.3232 4.8246-0.3532-3.5095-1.7418-3.5094-1.7418 3.0716-0.0319c1.9554-0.026337 3.9559-0.97522 5.4511-2.6118 1.2944-1.4204 2.8156-2.5817 3.4143-2.5817 0.59872 0 1.6855-0.94702 2.3811-2.0951 1.8327-3.0213-0.50174-3.6263-6.2662-1.6121-6.216 2.1721-7.5034 2.112-6.8597-0.41904 0.63159-2.4934 0.46728-2.5065-5.8283-0.38705-4.7884 1.6121-5.2867 1.5652-12.937-0.67828-10.319-3.0232-12.965-5.8568-5.0133-5.3851 0.81854 0.048859 1.8049-0.41708 2.1925-1.0635 0.49329-0.82303 1.3239-0.62946 2.7256 0.67639 1.5713 1.4637 2.8848 1.7155 6.0793 1.1612 4.5547-0.79294 4.8368-1.1856 2.3171-3.322-1.8032-1.5276-1.1369-1.4806 3.1634 0.29126 1.5419 0.63315 1.798 0.44333 1.2858-0.93576-0.47586-1.2739-0.093475-1.7099 1.4398-1.7099 1.3965 0 1.907-0.48856 1.535-1.4825-0.30292-0.81546-0.031219-1.7154 0.62643-1.9992 0.84097-0.36453 0.72678-0.95636-0.43787-1.9353-1.5228-1.2815-1.4606-1.5821 0.75275-3.773 3.6098-3.5775 2.9402-4.3273-2.35-2.5798-13.155 4.3422-17.98 4.6015-21.209 1.0634-1.831-2.0048-1.9365-2.5516-0.7216-3.0307 0.81847-0.32318 2.838-0.069519 4.5115 0.58057 4.2847 1.6629 5.2019 0.003754 1.6301-2.9668-2.504-2.0856-2.6719-2.4709-1.0037-2.3225 3.5078 0.31198 5.5151-0.097687 5.5151-1.1611 0-0.56744-0.78912-1.0616-1.7547-1.0954-1.4208-0.054535-1.3706-0.25555 0.34439-0.96957 1.1646-0.48294 2.3846-1.6028 2.7255-2.514 0.53479-1.4374 0.33569-1.5013-1.5972-0.38708-3.4973 2.0143-24.39 1.7061-28.791-0.41901-3.0768-1.4862-3.2395-1.7005-1.1594-1.7737 1.8984-0.067657 2.286-0.49796 1.8482-2.2265-0.49142-1.9353-0.3842-2.0105 1.1282-0.67642 2.1961 1.9372 5.2002 3.0195 5.2002 1.8714 0-0.49789 0.9016-0.68393 2.004-0.38705 1.1214 0.30063 2.0056 0.030029 2.0056-0.61252 0-0.6351 1.1282-1.1293 2.5058-1.1293 3.333 0 3.1668-1.0278-0.68875-4.2896l-3.2256-2.7094 5.3559 0.8718c5.5255 0.89816 7.5364 0.52423 6.4842-1.227-1.0261-1.7098 1.6683-3.9984 4.7001-3.9984 3.416 0 3.8885-1.7042 0.65762-2.4182-1.2806-0.28372-0.73892-0.46411 1.2529-0.38705 2.2808 0.088318 3.4211-0.27808 3.2585-1.0954-0.13678-0.69148 0.22665-1.2589 0.84616-1.2589 0.75623 0 0.71823-0.52609-0.1557-1.6121-0.83066-1.0297-2.241-1.443-3.885-1.0973-1.4207 0.29875-2.0057 0.31-1.3169 0 2.3136-1.0353 1.2892-2.6869-1.2529-2.0312-2.0334 0.52611-2.3466 0.32127-1.817-1.0954 0.47244-1.2702 0.26654-1.4994-0.71994-0.87186-0.74066 0.47162-2.4953 0.94327-3.9161 1.0635-1.4208 0.12213-3.6981 0.54302-5.0756 0.93758l-2.5059 0.7084 2.7567-2.4201c3.1859-2.8128 3.6479-4.4625 0.81508-2.9011-2.7965 1.5389-4.8489 1.4111-3.2914-0.19353 2.2514-2.3168 1.3636-4.1431-0.93791-1.9353-1.1786 1.1292-3.5406 2.7395-5.2643 3.5794-6.1243 2.9913-22.651-1.0804-22.651-5.5786 0-0.90002-0.55888-2.189-1.2217-2.8692-0.80463-0.8286-0.82716-1.227-0.09343-1.227 0.60394 0 1.3428 0.69525 1.6613 1.5483 0.36516 0.98457 1.798 1.4975 3.885 1.4186 1.8084-0.067642 4.3038 0.22923 5.5445 0.64636 1.8517 0.62193 2.2549 0.34573 2.2549-1.4205v-2.127l3.4143 2.0631c2.4557 1.49 3.6203 1.7606 4.136 0.90376 0.39459-0.65762 0.10208-1.6347-0.65762-2.1608-1.1906-0.82488 4.662-0.71588 8.6457 0.16158 0.55197 0.12024 2.0281-0.13152 3.2896-0.54863 2.1182-0.70085 2.1562-0.9113 0.69051-2.5798-1.4727-1.6742-1.3913-1.8414 0.97078-2.452 2.8969-0.74782 3.4732-2.6794 0.81338-2.7395-1.1058-0.026321-0.64027-0.5562 1.2546-1.4525 1.6526-0.78165 4.3332-2.5516 5.9512-3.9345l2.9142-2.5159-3.6652-0.7084c-2.0334-0.3927-3.6981-1.1574-3.6981-1.7098 0-0.5787-1.1664-0.729-2.7567-0.32127-2.4071 0.6163-2.6183 0.5242-1.5038-0.87186 1.9365-2.4201-0.94661-3.1585-3.9144-0.99959-1.3897 1.0108-4.4042 1.7625-7.2994 1.8056-3.9508 0.060135-4.5132-0.14279-2.7896-0.9357 1.9503-0.89438 2.1424-1.7361 1.2858-5.6745-0.04158-0.18788-1.5904 0.62382-3.4471 1.8057-1.8569 1.1818-4.9025 2.1345-6.7663 2.1289-6.2507-0.020676-17.009-4.3084-23.841-9.5132-2.6304-2.0048-2.0732-2.4201 0.97256-0.7422 1.5782 0.86995 1.9486 0.72528 1.9727-0.77414 0.029526-1.7587 0.077896-1.7775 1.0661-0.031921 0.56755 1.0052 1.4397 1.5764 1.9415 1.257 0.50189-0.31941 2.0524 0.18791 3.4454 1.1293 2.5075 1.6911 2.5231 1.6667 2.5387-1.257 0.006958-1.6272 0.34619-2.4314 0.75101-1.8076 0.87749 1.3528 4.6655 3.5155 6.171 3.5155 0.58836 0 1.137-1.0447 1.1906-2.3224 0.095245-2.204 0.12296-2.1908 0.78394 0.25932 0.38245 1.4186 0.90854 2.3656 1.1595 2.1288 0.24916-0.23863 1.3948 0.078918 2.5369 0.70839 1.6942 0.93195 2.3345 0.78165 3.4455-0.80609 0.75101-1.071 1.7512-1.6892 2.2253-1.3867 0.4725 0.30061 0.54683-0.65201 0.1869-2.1289-0.62646-2.5704-0.54166-2.6456 2.0991-1.6122 3.2603 1.2758 4.2726 0.64259 2.5075-1.5483-1.0556-1.3078-0.95181-1.5482 0.53126-1.5482 1.6873 0 1.6648-0.10901 0.032883-1.9673-0.95-1.0785-1.2979-2.2209-0.78394-2.5478 0.51399-0.32696 1.7202 0.3119 2.6945 1.4205 1.528 1.7361 2.5092 1.8921 6.3908 1.0954 0.20595-0.041351-0.10565-0.68958-0.72163-1.4506-1.3031-1.6197-0.53126-2.7414 1.9122-2.7414 0.95001 0 2.8017-0.91505 4.103-2.033l2.3811-2.0293-3.0075-0.1954c-1.6544-0.10712-4.1135-0.092056-5.4495 0.031937-2.1198 0.19917-2.2808 0.009399-1.1282-1.4186 2.1908-2.717 0.64897-2.7113-3.2274 0-4.2018 2.9406-6.7334 3.4517-4.7312 0.96767 1.0607-1.3134 1.0002-1.4787-0.37555-0.93382-1.9123 0.75532-2.1909-0.64824-0.47072-2.4201 2.5698-2.6437-0.15401-2.2454-3.3191 0.48477-6.2316 5.3738-6.9965 5.5467-14.036 3.3539-7.3789-2.2998-12.328-5.169-13.815-8.0307-0.91203-1.7512-0.70438-1.9992 1.4709-1.8696 1.3722 0.080795 2.7082 0.8681 2.9764 1.7399 0.26997 0.87372 1.4415 1.6535 2.6011 1.7418 1.6907 0.13153 1.9882-0.27997 1.5349-2.0631-0.50182-1.9785-0.29068-1.9072 1.7859 0.58063 1.2824 1.537 3.3296 2.8053 4.5738 2.8053 1.966 0 2.1978-0.39272 1.6908-2.9988-0.75804-3.9064 1.5955-4.9849 4.0425-1.8377 1.6716 2.1477 7.3097 3.6583 7.3304 1.9673 0.005173-0.42091-1.4622-2.003-3.2585-3.5494-2.4902-2.142-2.8328-2.8165-1.4727-2.8372 0.98292-0.015045 2.0351 0.63507 2.3501 1.4843 0.31665 0.84744 0.95522 1.3209 1.4103 1.0316 0.45518-0.28935 1.0937-0.06012 1.4415 0.51674 0.34605 0.57681 1.8378 1.0635 3.288 1.0635 2.5265 0 2.5525-0.07515 0.69051-1.4825-1.8776-1.4205-1.8448-1.5125 0.87735-2.5817 1.5522-0.61066 3.3554-1.1086 4.0096-1.1274 0.65234-0.020676 0.062286-0.69708-1.3169-1.4843-2.4436-1.3942-2.4175-1.4262 1.3792-1.0635 2.459 0.233 4.4197-0.16534 5.3265-1.0973 2.203-2.2679 0.6403-3.5475-4.3246-3.5475-2.7723 0-4.2674-0.42467-3.8833-1.0635 1.2616-2.1044-2.4383-2.1401-6.6105-0.065796-5.1136 2.5441-6.062 2.6719-5.2954 0.61256 0.36346-0.9714-0.010345-1.5464-1.0019-1.5464-0.99329 0-1.3654-0.5768-1.0019-1.5483 0.67493-1.8113 0.32701-1.8733-2.9765-0.58058-2.1494 0.83989-2.3847 0.71025-1.9417-1.0315 0.52617-2.0744-1.156-2.7997-2.2565-0.96768-0.34618 0.57495-2.4694 2.0368-4.7312 3.2243-3.6358 1.909-4.5755 2.0048-8.1438 0.90376-3.3294-1.0278-3.7534-1.4167-2.35-2.2266 0.9362-0.53923 1.7219-1.6816 1.7219-2.5478 0-1.2213-1.0262-1.5107-4.5408-1.289-3.4195 0.21611-4.9942-0.2217-6.4548-1.7418-2.1995-2.2904-4.3263-10.471-2.9436-11.351 0.85321-0.54489 1.3326 1.6535 0.97087 4.4813-0.093506 0.72531 0.78911 2.7076 1.9728 4.4194 1.7184 2.484 2.4486 2.8616 3.5718 1.9015 0.77358-0.65953 1.4398-2.4107 1.5038-3.9007 0.09169-2.1458 0.24054-2.2773 0.62648-0.64638 0.75961 3.2074 3.3606 5.6764 5.9841 5.6764 2.0489 0 2.2375-0.28558 1.3463-1.9992-1.3099-2.5197-1.3186-3.4629-0.031189-2.6437 0.55205 0.34947 1.002 0.14844 1.002-0.4528 0-0.60129 0.45168-1.0954 1.0037-1.0954 0.5504 0 1.002 0.65012 1.002 1.4506 0 1.8507 5.8578 7.0028 7.0812 6.225 0.50356-0.32129 0.93791-1.4788 0.93791-2.5798 0-1.1029 0.45171-2.0011 1.0349-2.0011 0.58314 0 0.79428-0.58058 0.43779-1.289-0.35475-0.7102 0.18864-0.2386 1.2235 1.0635 1.033 1.304 2.2236 2.0312 2.6303 1.6122 0.40665-0.41711 1.7184-0.92065 2.9453-1.0954 2.7152-0.38898 6.7663-2.4464 6.7663-3.4517 0-0.40207-1.3412-1.3021-2.9764-1.9992-1.6337-0.69708-2.8744-1.802-2.7567-2.4502 0.12109-0.65761-1.1542-1.2326-2.8501-1.2908-3.5078-0.11838-8.6111-2.5704-6.704-3.2243 0.68698-0.23677 1.2529-1.0992 1.2529-1.9034 0-1.6366-5.0133-2.0537-6.5794-0.54677-1.5159 1.4562-5.4512 2.4107-5.4512 1.3209 0-0.54298 1.1422-1.2758 2.5699-1.6441 2.1372-0.5524 2.3777-0.95264 1.3774-2.1927-0.98984-1.227-0.84096-1.49 0.6888-1.5163 2.2341-0.039474 6.0049-2.7827 5.1067-3.709-0.34433-0.35513-2.6926-0.8681-5.2002-1.1593-5.0167-0.58252-4.9907-0.56561-3.5094-3.4197 0.96217-1.8489 1.2062-1.8771 3.416-0.3871 2.2324 1.5069 2.4209 1.4543 3.0388-0.54677 0.36336-1.1781 1.085-1.8752 1.5972-1.5483 0.5123 0.32506 0.9397 0.11648 0.9397-0.48477 0-0.60127 0.90332-1.0954 2.0057-1.0954s2.0039-0.66136 2.0039-1.4524c0-1.5765-2.1181-2.6756-5.1068-2.6756-2.2755 0-2.5819-1.894-0.43784-2.7414 0.82382-0.32507 1.2876-0.93196 1.0349-1.3547-0.25446-0.42242 0.66278-1.3722 2.0351-2.1284 3.3796-1.8612 2.5438-3.5796-1.7548-3.5796h-3.5389l2.537-3.4184c1.9797-2.6685 2.2427-3.6692 1.2857-4.6438-0.95522-0.97125-1.9278-0.44153-4.5114 2.4509-3.0664 3.4295-3.3849 3.5614-4.4492 1.8058-0.63161-1.0415-1.599-1.8703-2.1302-1.8703-1.1924 0-4.3592 5.7744-5.0444 9.2232-0.5053 2.5494-9.7341 10.687-11.122 9.804-0.39455-0.2518-0.59003-3.0064-0.46893-6.1273 0.11943-3.1211-0.17825-5.6764-0.65758-5.6764-0.48111 0-0.73543-1.7145-0.5641-3.8052 0.25955-3.1722 0.76485-3.9411 3.1011-4.5794 2.4227-0.66177 2.7308-0.51466 2.2236 1.1287-0.91373 2.9662 1.5315 3.7207 3.4783 1.0643 1.028-1.4045 1.9954-1.932 2.3812-1.2899 0.68185 1.1379 4.6672 0.53626 4.6672-0.70951 0-0.95921-4.9907-5.765-5.8577-5.6436-0.36867 0.051689-1.4537-0.12887-2.4124-0.38689-2.8294-0.76151-0.98814-2.2123 2.0056-1.5804 5.0255 1.061 9.5542 0.86262 9.9938-0.45133 0.23535-0.70949-0.22841-1.2901-1.0349-1.2901-0.80467 0-2.0126-0.7027-2.6944-1.5479-0.68181-0.84517-1.6406-1.2785-2.1303-0.96751-0.48964 0.311-0.87909 0.20126-0.87727-0.25798 0.001694-0.4592 1.3566-1.7673 3.0076-2.9024 3.0353-2.0872 3.8695-3.6119 1.9745-3.6119-1.8257 0-8.393 3.1258-9.2738 4.4182-0.52266 0.76474-0.623 0.36791-0.25088-0.99976 0.33395-1.2292 0.17642-2.5071-0.34445-2.8378-1.0902-0.69425-5.1379 5.9439-5.1379 8.417 0 0.91354-0.29764 1.3692-0.65761 0.99958-0.35815-0.36958-1.2841 0.11219-2.035 1.0966-1.1923 1.5597-1.2945 1.1377-0.84625-3.2572 0.41365-4.0833 1.355-6.0758 5.0116-10.481 2.4832-2.9924 4.5426-6.1094 4.5426-6.9334 0-2.48-5.0375-0.84928-6.0776 1.9671-1.6561 4.4815-3.4766 2.9276-3.101-2.6445 0.27341-4.066-0.08313-5.6017-1.7548-7.4495l-2.0991-2.2897zm-6.7974 36.216c0.45683 0.028175 1.547 0.92368 2.7878 2.3539 2.0611 2.3769 3.0077 4.521 3.0077 6.8691 0 1.8844-0.19038 3.4507-0.40668 3.4507-0.53992 0-1.8326-3.1978-2.2877-5.6436-0.20599-1.1054-1.0349-2.7506-1.8482-3.6764-0.81516-0.92577-1.4727-2.329-1.4727-3.0958 0-0.19183 0.06572-0.26735 0.21983-0.25798zm-2.4436 15.157c1.907 0.14466 6.5328 3.431 7.2665 5.4189 1.3065 3.5343 0.56589 4.1938-1.6907 1.4825-0.98979-1.1894-2.3535-2.1608-3.0388-2.1608-1.1611 0-3.8988-3.9909-3.1634-4.611 0.14023-0.12025 0.35309-0.15031 0.62643-0.12965zm27.38 8.4177c0.24049 0 0.53473 0.045074 0.84618 0.12774 1.6527 0.44537 1.2651 1.0579-2.6009 4.0962-2.5041 1.9692-5.4373 3.6602-6.4843 3.741-1.0487 0.080795-1.8793 0.48854-1.8793 0.93568 0 0.44719-0.5088 0.83803-1.0972 0.83803-0.59006 0-0.9275-1.0447-0.75278-2.3224 0.27867-2.0086 0.85142-2.2904 4.1048-1.9992 2.8934 0.25928 3.7587-0.037613 3.7587-1.289 0-0.89627 0.67662-1.614 1.5038-1.614 0.82721 0 1.5039-0.65202 1.5039-1.4506 0-0.69708 0.37381-1.0691 1.0971-1.0634zm-11.622 14.769l2.3484 1.1932c1.2926 0.64822 3.435 0.8925 4.7623 0.54863 1.3671-0.35324 2.4124-0.17662 2.4124 0.41902 0 0.57869-0.43266 1.0654-0.93973 1.0654-0.50703 0-1.5679 0.23859-2.35 0.54863-0.7822 0.30814-2.4902-0.4209-3.8227-1.614l-2.4107-2.1608zm10.996 2.5479c0.22667 0.035706 0.56241 0.27617 1.0331 0.67833 1.1214 0.95634 1.5038 0.97327 1.5038 0.063828 0-0.67078 0.49315-0.88686 1.1282-0.48286 0.7995 0.50732 0.59012 1.165-0.68868 2.127-2.5819 1.9448-3.4471 1.7343-3.4471-0.80605 0-1.1424 0.09169-1.6366 0.47063-1.5802zm15.099 3.7729c0.86186 0 1.3135 0.46599 0.97256 1.0334-0.80293 1.334-2.5058 1.334-2.5058 0 0-0.56744 0.67493-1.0334 1.5332-1.0334zm-23.589 16.512c0.55031 0 1.0021 2.3224 1.0021 5.1596 0 5.2329-0.15059 5.682-1.3464 4.4512-1.0677-1.0992-0.76149-9.6109 0.34432-9.6109zm-7.6436 13.771c0.35997-0.063889 0.62648 0.16158 0.62648 0.61253 0 0.60126-0.45166 1.0954-1.0038 1.0954-1.2841 0-1.2841-0.7309 0-1.5483 0.13852-0.086411 0.25618-0.13902 0.37727-0.15968zm8.0833 2.1927c0.057037-0.005615 0.14877 0.082672 0.21802 0.25742 0.27515 0.69898 0.28551 2.0913 0.031097 3.0965-0.25433 1.0034-0.48106 0.44533-0.50008-1.2589-0.017319-1.2758 0.076111-2.08 0.25096-2.095zm-12.47 0.5487c0.55209 0 1.0019 0.20104 1.0019 0.45093 0 0.24992-0.44984 0.74596-1.0019 1.0954-0.55031 0.35136-1.002 0.15031-1.002-0.45096 0-0.60124 0.45168-1.0954 1.002-1.0954zm-5.0115 2.0631c0.55028 0 1.0019 0.20106 1.0019 0.45285 0 0.248-0.45166 0.74406-1.0019 1.0954-0.55205 0.35136-1.0037 0.14844-1.0037-0.45096 0-0.60124 0.45166-1.0973 1.0037-1.0973zm-20.865 0.0319c0.68529 0.069534 1.5367 0.53549 2.1925 1.3867 2.0317 2.6362 5.401 2.9875 7.2682 0.74217 1.6509-1.986 4.0078-2.0123 2.8191-0.031921-0.31677 0.52797 0.11235 0.96767 0.93961 0.96767 0.82724 0 1.7893-0.46414 2.1303-1.0334 0.80981-1.3472 2.5075-1.3547 2.5075 0 0 0.58247-1.2407 1.5614-2.7567 2.1627-1.5176 0.59747-5.3369 1.319-8.4588 1.6102-4.9752 0.46599-5.8127 0.28748-6.7679-1.5464-0.59877-1.1518-1.0644-2.5873-1.0644-3.1924 0-0.7854 0.50539-1.1349 1.1907-1.0654zm91.978 54.663c0.58481 0 1.066 0.46411 1.066 1.0315 0 1.3228-0.7095 1.3228-1.5038 0-0.34087-0.56743-0.14531-1.0315 0.43788-1.0315zm-83.802 12.384c0.6126 0-0.57449 0.92819-2.6321 2.0631-3.641 2.0086-5.7332 2.5686-5.7332 1.5483 0-0.64072 6.8839-3.6114 8.3653-3.6114zm86.56 44.084c1.1023-0.007507 2.2013 0.11273 2.8814 0.38705 1.3689 0.5524 0.69559 0.78726-2.3189 0.83795-2.3431 0.03949-4.2606-0.10513-4.2606-0.32318 0-0.54672 1.8552-0.89062 3.6981-0.90182zm22.431 5.5786c0.34781-0.015015 0.76492 0.045074 1.1266 0.19354 0.79956 0.32886 0.53995 0.56183-0.62643 0.61255-1.0574 0.045105-1.6492-0.20483-1.3152-0.54868 0.16617-0.17102 0.46564-0.2424 0.81512-0.25742zm0.2492 25.702c0.045044-0.013184 0.11945 0 0.18866 0 0.55026 0 1.6786 0.44907 2.5057 0.99957 0.82721 0.55057 1.0522 0.99957 0.50189 0.99957-0.55203 0-1.6803-0.449-2.5075-0.99957-0.7233-0.48102-1.0036-0.90564-0.68872-0.99957zm-174.62 41.698c0.47411-0.073212 0.60912 0.14282 0.34432 0.58066-0.3357 0.56183-1.0158 1.0316-1.5349 1.0316-1.4415 0-1.1404-0.76477 0.59529-1.4506 0.22314-0.088348 0.43774-0.13721 0.59528-0.16165zm16.198 8.8687l2.286 2.5159 2.2566 2.514 1.7219-2.7076c1.5678-2.4633 1.7858-2.5122 2.6944-0.83798 0.74761 1.3716 1.2044 1.4843 1.7859 0.5148 0.55209-0.91879 0.95873-0.66144 1.4415 0.90378 0.68528 2.2209 2.5681 3.1003 2.5681 1.1932 0-0.56747 1.2407-1.0353 2.7567-1.0334h2.7566l-3.0059 1.6459c-1.9399 1.0522-4.5339 1.4355-7.2681 1.1293-2.3345-0.26306-3.9958-0.045074-3.6982 0.45093 0.79085 1.3171-0.70428 1.0766-3.7898-0.58057-1.5748-0.84549-2.8191-1.0353-3.0077-0.45099-0.17825 0.54871-1.1457 0.67831-2.1303 0.2894-1.663-0.65576-1.6197-0.87372 0.43779-3.1285l2.1943-2.4182zm23.307 1.1293c0.21114-0.001953 0.4153 0.001801 0.59529 0.063843 0.75096 0.25736 0.29065 0.7309-1.0643 1.0973-1.6683 0.44717-2.0593 0.31375-1.3152-0.45096 0.43613-0.45096 1.1525-0.70648 1.7842-0.7102zm-10.181 42.536c0.35997-0.061951 0.62643 0.16159 0.62643 0.61258 0 0.60123-0.45174 1.0973-1.002 1.0973-1.2858 0-1.2858-0.73093 0-1.5483 0.13675-0.088287 0.2561-0.1409 0.37559-0.16159z" fill="#105b34"/>
</svg>
