<?xml version='1.0' encoding='utf-8'?>
<svg xmlns="http://www.w3.org/2000/svg" version="1.0" width="5000.000000pt" height="2109.000000pt" viewBox="0 0 5000.000000 2109.000000" preserveAspectRatio="xMidYMid meet" id="svg12"> <metadata id="metadata18"> </metadata> <defs id="defs16"/> <g transform="matrix(0.1,0,0,-0.1,0,2123.2857)" id="g10" style="fill:#000000;stroke:none"> <path d="m 19650,19195 c -357,-56 -780,-216 -1057,-401 -199,-134 -423,-331 -546,-484 -155,-192 -320,-484 -406,-718 -50,-135 -124,-393 -148,-511 -23,-110 -25,-477 -4,-591 20,-113 116,-438 166,-567 154,-395 420,-762 735,-1014 147,-119 278,-201 485,-306 104,-53 204,-107 222,-120 81,-62 108,-208 57,-310 -60,-121 -202,-195 -459,-240 -152,-26 -534,-24 -715,4 -255,40 -513,106 -872,223 -128,42 -233,70 -258,70 -86,0 -115,-46 -195,-305 -100,-322 -174,-661 -212,-965 -25,-204 -25,-665 0,-835 59,-396 174,-652 329,-729 120,-60 215,-30 550,177 242,149 361,203 503,228 90,15 225,7 300,-20 256,-91 490,-444 551,-834 24,-148 15,-386 -20,-523 -87,-348 -310,-681 -547,-818 -114,-65 -266,-92 -430,-75 -130,13 -218,36 -396,105 -352,135 -409,148 -506,120 -66,-19 -152,-82 -203,-149 -54,-73 -113,-206 -144,-331 -28,-110 -39,-189 -61,-436 -6,-69 -20,-159 -32,-200 l -22,-75 V 5285 c 0,-3564 -4,-3315 54,-3378 71,-79 288,-139 706,-197 595,-82 1143,-76 1818,21 242,34 453,77 564,114 217,73 392,215 440,358 17,49 18,166 23,1732 6,1729 6,1720 45,1795 32,63 114,110 190,110 40,0 115,-35 134,-62 45,-63 45,-55 52,-848 4,-415 12,-809 18,-875 5,-66 10,-480 10,-920 1,-682 3,-810 16,-860 49,-190 309,-376 655,-470 107,-28 472,-99 748,-144 384,-64 804,-64 1128,-1 403,79 609,133 807,211 143,57 189,83 230,128 20,23 38,42 39,44 2,1 5,1484 8,3295 l 5,3292 h -27 c -16,0 -28,5 -28,10 0,6 11,10 25,10 27,0 30,9 16,57 -5,18 -19,108 -31,200 -48,375 -149,641 -327,871 -111,142 -219,212 -328,212 -86,0 -164,-41 -365,-189 -256,-190 -385,-244 -575,-243 -80,0 -117,5 -182,26 -305,98 -646,536 -724,931 -23,114 -18,349 10,474 49,226 153,437 291,595 145,166 270,226 468,226 159,0 240,-27 542,-181 224,-114 314,-146 379,-134 268,47 450,483 451,1080 0,353 -64,917 -145,1281 -55,242 -79,254 -324,155 -337,-136 -603,-207 -915,-246 -500,-62 -1034,6 -1359,173 -166,84 -246,185 -255,317 -10,157 23,193 303,330 306,151 484,275 696,486 321,320 511,647 653,1125 116,389 122,694 21,1079 -108,414 -285,770 -523,1056 -224,267 -569,522 -902,664 -225,96 -542,186 -722,205 -135,14 -374,11 -478,-5 z" id="path2" style="fill:#fedd14;fill-opacity:1"/> <path d="m 9180,19154 c -118,-14 -204,-32 -355,-74 -467,-133 -797,-317 -1127,-629 -124,-117 -208,-218 -313,-376 -152,-228 -263,-472 -350,-769 -68,-232 -75,-278 -82,-506 -8,-309 15,-455 122,-778 136,-407 320,-709 609,-997 133,-133 293,-260 446,-355 118,-74 149,-98 177,-143 13,-21 38,-44 55,-52 l 32,-13 -32,-16 c -18,-9 -43,-34 -57,-56 -31,-49 -142,-129 -255,-184 l -85,-41 -365,-6 c -404,-7 -539,-20 -855,-84 -287,-58 -353,-86 -376,-163 -9,-31 -6,-58 16,-162 144,-684 180,-974 179,-1475 0,-278 -3,-339 -22,-462 -41,-263 -106,-429 -211,-533 -74,-74 -139,-100 -254,-100 -142,0 -216,28 -501,192 -303,175 -460,220 -618,179 -86,-22 -136,-45 -223,-104 -140,-93 -279,-240 -389,-408 -174,-269 -194,-456 -75,-718 52,-114 156,-260 259,-361 160,-157 306,-229 486,-238 168,-8 297,24 624,153 230,91 309,109 441,103 85,-4 107,-9 163,-37 208,-102 351,-433 410,-950 37,-317 47,-1206 17,-1476 -8,-72 -11,-870 -9,-2810 3,-2587 4,-2712 21,-2750 37,-83 94,-121 257,-173 228,-73 514,-112 875,-119 392,-8 670,15 1001,82 315,64 472,133 597,263 57,61 73,87 103,167 18,48 19,123 24,1750 6,1901 1,1768 75,1834 42,36 72,45 126,38 45,-6 60,-21 86,-87 17,-42 18,-145 23,-1740 6,-1801 3,-1718 52,-1815 27,-52 120,-148 188,-195 181,-123 506,-227 956,-306 193,-34 225,-37 414,-38 229,-1 270,5 620,90 424,104 549,169 579,304 13,54 14,6497 2,6720 -9,163 1,364 24,488 57,301 205,517 387,563 70,18 217,16 298,-6 36,-9 157,-53 269,-97 340,-134 485,-158 641,-108 277,89 554,455 658,869 38,153 37,322 -2,475 -101,397 -331,687 -581,736 -49,9 -73,9 -131,-4 -138,-28 -221,-69 -538,-260 -88,-53 -196,-110 -240,-128 -75,-30 -90,-32 -201,-33 -103,0 -127,3 -168,22 -162,75 -279,318 -339,708 -26,168 -36,619 -19,828 31,373 107,745 240,1176 63,202 66,248 19,295 -39,38 -142,78 -356,136 -313,85 -564,116 -862,107 -283,-9 -496,-43 -835,-136 -162,-45 -222,-50 -305,-25 -41,12 -66,28 -104,68 -28,29 -62,59 -76,66 l -24,13 29,14 c 17,8 44,35 60,61 23,35 65,70 176,147 195,134 272,197 409,335 244,246 437,548 554,862 54,146 134,418 153,521 25,133 24,486 -1,617 -35,180 -146,521 -228,700 -113,245 -302,515 -480,686 -332,318 -684,521 -1120,644 -247,70 -319,81 -548,85 -113,2 -221,1 -240,-1 z" id="path4" style="fill:#f0466a;fill-opacity:1"/> <path d="m 40545,19104 c -173,-18 -248,-28 -350,-49 -236,-49 -478,-139 -690,-257 -95,-53 -232,-140 -272,-173 -7,-5 -18,-15 -25,-20 -104,-83 -148,-122 -232,-203 -354,-347 -591,-782 -691,-1267 -62,-304 -61,-698 4,-1009 116,-553 430,-1064 871,-1415 143,-114 245,-180 434,-277 l 118,-61 -65,-47 c -249,-178 -668,-248 -1202,-201 -347,30 -600,78 -858,162 -60,19 -110,33 -112,31 -7,-8 -211,-618 -255,-765 -173,-569 -216,-981 -145,-1389 36,-202 120,-395 218,-500 74,-80 119,-98 221,-92 89,6 141,29 351,155 190,114 254,146 363,183 273,91 490,15 763,-267 209,-216 374,-487 409,-675 14,-74 12,-213 -5,-291 -17,-80 -85,-228 -146,-318 -61,-91 -188,-219 -276,-280 -146,-101 -301,-151 -468,-150 -222,0 -361,48 -810,280 -122,63 -180,81 -259,81 -249,0 -478,-380 -558,-923 -22,-151 -30,-466 -14,-579 6,-49 5,-58 -8,-58 -15,0 -16,-320 -16,-3455 0,-3325 1,-3455 18,-3464 59,-31 344,-100 542,-130 307,-48 963,-61 1355,-27 427,36 768,114 980,223 77,40 124,73 207,148 46,41 57,58 63,92 4,24 11,45 16,49 5,3 9,695 9,1716 0,1275 3,1727 12,1772 6,34 22,75 35,93 13,17 23,36 23,41 0,18 36,40 75,46 63,9 107,-5 132,-43 l 23,-34 V 3988 c 0,-1003 4,-1776 9,-1786 5,-9 15,-30 22,-47 8,-16 40,-56 73,-89 231,-230 739,-394 1377,-446 176,-14 610,-15 724,0 161,20 338,50 440,76 296,76 625,207 674,270 l 21,27 v 3349 c 0,2879 -2,3352 -14,3371 -37,57 -28,497 14,673 88,375 303,641 573,711 79,20 270,12 372,-15 39,-10 162,-45 275,-76 271,-75 357,-90 495,-83 134,6 219,32 319,97 329,215 569,794 490,1178 -50,244 -158,461 -308,620 -121,127 -250,192 -385,192 -156,0 -285,-56 -686,-300 -215,-131 -367,-190 -487,-190 -318,0 -556,414 -573,993 -5,191 23,519 64,753 73,411 106,545 206,838 25,71 43,132 40,134 -3,3 -103,-25 -222,-61 -551,-167 -842,-217 -1278,-217 -248,0 -377,10 -612,46 -292,45 -523,119 -647,207 l -29,21 24,7 c 166,49 219,66 309,101 166,64 308,139 470,247 89,59 92,61 126,89 12,9 36,28 54,42 85,64 268,246 357,354 243,299 422,672 503,1056 47,222 64,542 40,768 -28,260 -107,548 -215,778 -189,406 -478,747 -853,1008 -73,51 -280,165 -377,209 -197,88 -429,155 -648,188 -126,18 -434,32 -522,23 z" id="path6" style="fill:#5373bc;fill-opacity:1"/> <path d="m 29867,18929 c -102,-12 -353,-77 -537,-139 -307,-102 -502,-206 -780,-414 -310,-232 -606,-626 -758,-1011 -85,-216 -161,-478 -183,-635 -17,-121 -14,-355 6,-484 30,-201 141,-542 246,-761 92,-193 172,-314 383,-584 37,-46 71,-102 78,-125 6,-22 24,-55 40,-71 15,-17 28,-34 28,-38 0,-4 -18,-7 -41,-7 -25,0 -56,-9 -83,-25 -24,-14 -98,-37 -176,-55 -247,-55 -441,-125 -795,-285 -284,-128 -336,-164 -351,-241 -4,-24 5,-97 30,-223 59,-308 90,-529 118,-851 17,-197 17,-657 0,-790 -44,-344 -129,-568 -271,-711 -94,-94 -154,-120 -276,-123 -133,-2 -187,16 -452,150 -134,67 -272,132 -308,144 -211,70 -363,31 -536,-140 -150,-148 -269,-359 -316,-562 -23,-98 -27,-135 -26,-273 0,-188 15,-259 88,-413 167,-352 472,-633 714,-658 154,-17 300,47 586,254 153,112 240,156 336,172 186,32 346,-44 492,-233 134,-172 217,-345 272,-559 25,-99 32,-170 40,-403 2,-71 11,-154 19,-182 l 14,-53 h -29 c -16,0 -29,-5 -29,-11 0,-6 10,-9 23,-7 l 22,4 V 6526 c 0,-1134 -1,-2620 -2,-3303 l -3,-1241 -25,-30 c -14,-17 -25,-37 -25,-46 0,-29 38,-92 74,-123 84,-74 383,-144 741,-174 155,-13 556,-7 720,11 252,27 551,89 702,146 160,60 292,164 347,273 58,113 56,47 56,1796 0,941 4,1644 10,1692 15,132 62,201 143,210 60,7 84,-9 115,-75 l 27,-57 5,-1700 c 5,-1573 6,-1704 22,-1750 25,-72 70,-135 147,-207 124,-115 294,-193 583,-268 420,-108 800,-141 1081,-91 261,46 567,135 706,206 78,40 113,71 144,128 l 22,42 2,3602 c 1,3975 -3,3678 63,3945 83,331 239,588 406,665 53,24 70,27 174,27 141,1 162,-6 450,-144 311,-149 458,-194 630,-193 118,0 194,20 325,82 119,57 197,114 292,214 212,223 303,481 248,701 -22,87 -123,285 -202,395 -140,195 -348,385 -506,463 -98,49 -148,61 -242,61 -132,-1 -280,-58 -530,-204 -125,-72 -219,-117 -287,-135 -71,-19 -184,-18 -246,2 -148,48 -264,218 -332,489 -41,161 -54,285 -54,515 0,392 60,682 270,1306 61,183 104,327 104,350 0,85 -42,117 -320,242 -481,217 -761,298 -1113,322 -87,6 -162,16 -183,25 -20,8 -62,15 -92,15 h -56 l 37,38 c 22,23 37,48 37,63 0,36 27,82 137,226 219,290 347,549 457,923 68,233 80,312 80,540 0,220 -12,305 -71,510 -139,488 -329,827 -650,1166 -108,114 -297,261 -479,372 -102,63 -336,178 -456,226 -71,28 -353,105 -503,138 -105,23 -439,33 -568,17 z" id="path8" style="fill:#69bc76;fill-opacity:1"/> </g> </svg>